<?xml version="1.0" encoding="UTF-8" standalone="no"?>
<!-- Created with Inkscape (http://www.inkscape.org/) -->

<svg
   xmlns:ns0="http://www.iki.fi/pav/software/textext/"
   xmlns:dc="http://purl.org/dc/elements/1.1/"
   xmlns:cc="http://creativecommons.org/ns#"
   xmlns:rdf="http://www.w3.org/1999/02/22-rdf-syntax-ns#"
   xmlns:svg="http://www.w3.org/2000/svg"
   xmlns="http://www.w3.org/2000/svg"
   xmlns:sodipodi="http://sodipodi.sourceforge.net/DTD/sodipodi-0.dtd"
   xmlns:inkscape="http://www.inkscape.org/namespaces/inkscape"
   width="32.183197mm"
   height="16.093346mm"
   viewBox="0 0 114.03494 57.023666"
   id="svg15689"
   version="1.1"
   inkscape:version="0.91 r13725"
   inkscape:export-filename="/home/jonas/suurph/sschool18/fig/markov_3state.png"
   inkscape:export-xdpi="300"
   inkscape:export-ydpi="300"
   sodipodi:docname="markov_2state.svg">
  <sodipodi:namedview
     id="base"
     pagecolor="#ffffff"
     bordercolor="#666666"
     borderopacity="1.0"
     inkscape:pageopacity="0.0"
     inkscape:pageshadow="2"
     inkscape:zoom="4"
     inkscape:cx="-26.854522"
     inkscape:cy="-15.446044"
     inkscape:document-units="px"
     inkscape:current-layer="layer1"
     showgrid="false"
     inkscape:window-width="1920"
     inkscape:window-height="1170"
     inkscape:window-x="0"
     inkscape:window-y="30"
     inkscape:window-maximized="1"
     fit-margin-top="1"
     fit-margin-left="1"
     fit-margin-right="1"
     fit-margin-bottom="1" />
  <defs
     id="defs15691">
    <marker
       inkscape:stockid="Arrow2Mend"
       orient="auto"
       refY="0"
       refX="0"
       id="Arrow2Mend"
       style="overflow:visible"
       inkscape:isstock="true">
      <path
         inkscape:connector-curvature="0"
         id="path20940"
         style="fill:#000000;fill-opacity:1;fill-rule:evenodd;stroke:#000000;stroke-width:0.625;stroke-linejoin:round;stroke-opacity:1"
         d="M 8.7185878,4.0337352 -2.2072895,0.01601326 8.7185884,-4.0017078 c -1.7454984,2.3720609 -1.7354408,5.6174519 -6e-7,8.035443 z"
         transform="scale(-0.6,-0.6)" />
    </marker>
    <marker
       inkscape:stockid="Arrow2Mend"
       orient="auto"
       refY="0"
       refX="0"
       id="Arrow2Mend-7"
       style="overflow:visible"
       inkscape:isstock="true">
      <path
         inkscape:connector-curvature="0"
         id="path20940-3"
         style="fill:#000000;fill-opacity:1;fill-rule:evenodd;stroke:#000000;stroke-width:0.625;stroke-linejoin:round;stroke-opacity:1"
         d="M 8.7185878,4.0337352 -2.2072895,0.01601326 8.7185884,-4.0017078 c -1.7454984,2.3720609 -1.7354408,5.6174519 -6e-7,8.035443 z"
         transform="scale(-0.6,-0.6)" />
    </marker>
    <marker
       inkscape:stockid="Arrow2Mend"
       orient="auto"
       refY="0"
       refX="0"
       id="Arrow2Mend-0"
       style="overflow:visible"
       inkscape:isstock="true">
      <path
         inkscape:connector-curvature="0"
         id="path20940-9"
         style="fill:#000000;fill-opacity:1;fill-rule:evenodd;stroke:#000000;stroke-width:0.625;stroke-linejoin:round;stroke-opacity:1"
         d="M 8.7185878,4.0337352 -2.2072895,0.01601326 8.7185884,-4.0017078 c -1.7454984,2.3720609 -1.7354408,5.6174519 -6e-7,8.035443 z"
         transform="scale(-0.6,-0.6)" />
    </marker>
    <marker
       inkscape:stockid="Arrow2Mend"
       orient="auto"
       refY="0"
       refX="0"
       id="Arrow2Mend-8"
       style="overflow:visible"
       inkscape:isstock="true">
      <path
         inkscape:connector-curvature="0"
         id="path20940-2"
         style="fill:#000000;fill-opacity:1;fill-rule:evenodd;stroke:#000000;stroke-width:0.625;stroke-linejoin:round;stroke-opacity:1"
         d="M 8.7185878,4.0337352 -2.2072895,0.01601326 8.7185884,-4.0017078 c -1.7454984,2.3720609 -1.7354408,5.6174519 -6e-7,8.035443 z"
         transform="scale(-0.6,-0.6)" />
    </marker>
    <marker
       inkscape:stockid="Arrow2Mend"
       orient="auto"
       refY="0"
       refX="0"
       id="Arrow2Mend-08"
       style="overflow:visible"
       inkscape:isstock="true">
      <path
         inkscape:connector-curvature="0"
         id="path20940-6"
         style="fill:#000000;fill-opacity:1;fill-rule:evenodd;stroke:#000000;stroke-width:0.625;stroke-linejoin:round;stroke-opacity:1"
         d="M 8.7185878,4.0337352 -2.2072895,0.01601326 8.7185884,-4.0017078 c -1.7454984,2.3720609 -1.7354408,5.6174519 -6e-7,8.035443 z"
         transform="scale(-0.6,-0.6)" />
    </marker>
    <clipPath
       clipPathUnits="userSpaceOnUse"
       id="clipPath21752">
      <rect
         style="color:#000000;clip-rule:nonzero;display:inline;overflow:visible;visibility:visible;opacity:1;isolation:auto;mix-blend-mode:normal;color-interpolation:sRGB;color-interpolation-filters:linearRGB;solid-color:#000000;solid-opacity:1;fill:none;fill-opacity:1;fill-rule:nonzero;stroke:#000000;stroke-width:1.20765281;stroke-linecap:round;stroke-linejoin:miter;stroke-miterlimit:4;stroke-dasharray:none;stroke-dashoffset:0;stroke-opacity:1;marker:none;color-rendering:auto;image-rendering:auto;shape-rendering:auto;text-rendering:auto;enable-background:accumulate"
         id="rect21754"
         width="44.424103"
         height="7.1937814"
         x="90.507477"
         y="101.64697" />
    </clipPath>
    <marker
       inkscape:stockid="Arrow2Mend"
       orient="auto"
       refY="0"
       refX="0"
       id="Arrow2Mend-3"
       style="overflow:visible"
       inkscape:isstock="true">
      <path
         inkscape:connector-curvature="0"
         id="path20940-37"
         style="fill:#000000;fill-opacity:1;fill-rule:evenodd;stroke:#000000;stroke-width:0.625;stroke-linejoin:round;stroke-opacity:1"
         d="M 8.7185878,4.0337352 -2.2072895,0.01601326 8.7185884,-4.0017078 c -1.7454984,2.3720609 -1.7354408,5.6174519 -6e-7,8.035443 z"
         transform="scale(-0.6,-0.6)" />
    </marker>
    <clipPath
       clipPathUnits="userSpaceOnUse"
       id="clipPath21752-4">
      <rect
         style="color:#000000;clip-rule:nonzero;display:inline;overflow:visible;visibility:visible;opacity:1;isolation:auto;mix-blend-mode:normal;color-interpolation:sRGB;color-interpolation-filters:linearRGB;solid-color:#000000;solid-opacity:1;fill:none;fill-opacity:1;fill-rule:nonzero;stroke:#000000;stroke-width:1.20765281;stroke-linecap:round;stroke-linejoin:miter;stroke-miterlimit:4;stroke-dasharray:none;stroke-dashoffset:0;stroke-opacity:1;marker:none;color-rendering:auto;image-rendering:auto;shape-rendering:auto;text-rendering:auto;enable-background:accumulate"
         id="rect21754-3"
         width="44.424103"
         height="7.1937814"
         x="90.507477"
         y="101.64697" />
    </clipPath>
    <marker
       inkscape:stockid="Arrow2Mend"
       orient="auto"
       refY="0"
       refX="0"
       id="Arrow2Mend-1"
       style="overflow:visible"
       inkscape:isstock="true">
      <path
         inkscape:connector-curvature="0"
         id="path20940-39"
         style="fill:#000000;fill-opacity:1;fill-rule:evenodd;stroke:#000000;stroke-width:0.625;stroke-linejoin:round;stroke-opacity:1"
         d="M 8.7185878,4.0337352 -2.2072895,0.01601326 8.7185884,-4.0017078 c -1.7454984,2.3720609 -1.7354408,5.6174519 -6e-7,8.035443 z"
         transform="scale(-0.6,-0.6)" />
    </marker>
    <clipPath
       clipPathUnits="userSpaceOnUse"
       id="clipPath21752-6">
      <rect
         style="color:#000000;clip-rule:nonzero;display:inline;overflow:visible;visibility:visible;opacity:1;isolation:auto;mix-blend-mode:normal;color-interpolation:sRGB;color-interpolation-filters:linearRGB;solid-color:#000000;solid-opacity:1;fill:none;fill-opacity:1;fill-rule:nonzero;stroke:#000000;stroke-width:1.20765281;stroke-linecap:round;stroke-linejoin:miter;stroke-miterlimit:4;stroke-dasharray:none;stroke-dashoffset:0;stroke-opacity:1;marker:none;color-rendering:auto;image-rendering:auto;shape-rendering:auto;text-rendering:auto;enable-background:accumulate"
         id="rect21754-4"
         width="44.424103"
         height="7.1937814"
         x="90.507477"
         y="101.64697" />
    </clipPath>
    <marker
       inkscape:stockid="Arrow2Mend"
       orient="auto"
       refY="0"
       refX="0"
       id="Arrow2Mend-3-2"
       style="overflow:visible"
       inkscape:isstock="true">
      <path
         inkscape:connector-curvature="0"
         id="path20940-37-0"
         style="fill:#000000;fill-opacity:1;fill-rule:evenodd;stroke:#000000;stroke-width:0.625;stroke-linejoin:round;stroke-opacity:1"
         d="M 8.7185878,4.0337352 -2.2072895,0.01601326 8.7185884,-4.0017078 c -1.7454984,2.3720609 -1.7354408,5.6174519 -6e-7,8.035443 z"
         transform="scale(-0.6,-0.6)" />
    </marker>
    <clipPath
       clipPathUnits="userSpaceOnUse"
       id="clipPath21752-4-2">
      <rect
         style="color:#000000;clip-rule:nonzero;display:inline;overflow:visible;visibility:visible;opacity:1;isolation:auto;mix-blend-mode:normal;color-interpolation:sRGB;color-interpolation-filters:linearRGB;solid-color:#000000;solid-opacity:1;fill:none;fill-opacity:1;fill-rule:nonzero;stroke:#000000;stroke-width:1.20765281;stroke-linecap:round;stroke-linejoin:miter;stroke-miterlimit:4;stroke-dasharray:none;stroke-dashoffset:0;stroke-opacity:1;marker:none;color-rendering:auto;image-rendering:auto;shape-rendering:auto;text-rendering:auto;enable-background:accumulate"
         id="rect21754-3-9"
         width="44.424103"
         height="7.1937814"
         x="90.507477"
         y="101.64697" />
    </clipPath>
    <marker
       inkscape:stockid="Arrow2Mend"
       orient="auto"
       refY="0"
       refX="0"
       id="Arrow2Mend-31"
       style="overflow:visible"
       inkscape:isstock="true">
      <path
         inkscape:connector-curvature="0"
         id="path20940-8"
         style="fill:#000000;fill-opacity:1;fill-rule:evenodd;stroke:#000000;stroke-width:0.625;stroke-linejoin:round;stroke-opacity:1"
         d="M 8.7185878,4.0337352 -2.2072895,0.01601326 8.7185884,-4.0017078 c -1.7454984,2.3720609 -1.7354408,5.6174519 -6e-7,8.035443 z"
         transform="scale(-0.6,-0.6)" />
    </marker>
    <clipPath
       clipPathUnits="userSpaceOnUse"
       id="clipPath21752-1">
      <rect
         style="color:#000000;clip-rule:nonzero;display:inline;overflow:visible;visibility:visible;opacity:1;isolation:auto;mix-blend-mode:normal;color-interpolation:sRGB;color-interpolation-filters:linearRGB;solid-color:#000000;solid-opacity:1;fill:none;fill-opacity:1;fill-rule:nonzero;stroke:#000000;stroke-width:1.20765281;stroke-linecap:round;stroke-linejoin:miter;stroke-miterlimit:4;stroke-dasharray:none;stroke-dashoffset:0;stroke-opacity:1;marker:none;color-rendering:auto;image-rendering:auto;shape-rendering:auto;text-rendering:auto;enable-background:accumulate"
         id="rect21754-38"
         width="44.424103"
         height="7.1937814"
         x="90.507477"
         y="101.64697" />
    </clipPath>
    <marker
       inkscape:stockid="Arrow2Mend"
       orient="auto"
       refY="0"
       refX="0"
       id="Arrow2Mend-3-9"
       style="overflow:visible"
       inkscape:isstock="true">
      <path
         inkscape:connector-curvature="0"
         id="path20940-37-2"
         style="fill:#000000;fill-opacity:1;fill-rule:evenodd;stroke:#000000;stroke-width:0.625;stroke-linejoin:round;stroke-opacity:1"
         d="M 8.7185878,4.0337352 -2.2072895,0.01601326 8.7185884,-4.0017078 c -1.7454984,2.3720609 -1.7354408,5.6174519 -6e-7,8.035443 z"
         transform="scale(-0.6,-0.6)" />
    </marker>
    <clipPath
       clipPathUnits="userSpaceOnUse"
       id="clipPath21752-4-4">
      <rect
         style="color:#000000;clip-rule:nonzero;display:inline;overflow:visible;visibility:visible;opacity:1;isolation:auto;mix-blend-mode:normal;color-interpolation:sRGB;color-interpolation-filters:linearRGB;solid-color:#000000;solid-opacity:1;fill:none;fill-opacity:1;fill-rule:nonzero;stroke:#000000;stroke-width:1.20765281;stroke-linecap:round;stroke-linejoin:miter;stroke-miterlimit:4;stroke-dasharray:none;stroke-dashoffset:0;stroke-opacity:1;marker:none;color-rendering:auto;image-rendering:auto;shape-rendering:auto;text-rendering:auto;enable-background:accumulate"
         id="rect21754-3-5"
         width="44.424103"
         height="7.1937814"
         x="90.507477"
         y="101.64697" />
    </clipPath>
    <marker
       inkscape:stockid="Arrow2Mend"
       orient="auto"
       refY="0"
       refX="0"
       id="Arrow2Mend-02"
       style="overflow:visible"
       inkscape:isstock="true">
      <path
         inkscape:connector-curvature="0"
         id="path20940-22"
         style="fill:#000000;fill-opacity:1;fill-rule:evenodd;stroke:#000000;stroke-width:0.625;stroke-linejoin:round;stroke-opacity:1"
         d="M 8.7185878,4.0337352 -2.2072895,0.01601326 8.7185884,-4.0017078 c -1.7454984,2.3720609 -1.7354408,5.6174519 -6e-7,8.035443 z"
         transform="scale(-0.6,-0.6)" />
    </marker>
    <clipPath
       clipPathUnits="userSpaceOnUse"
       id="clipPath21752-47">
      <rect
         style="color:#000000;clip-rule:nonzero;display:inline;overflow:visible;visibility:visible;opacity:1;isolation:auto;mix-blend-mode:normal;color-interpolation:sRGB;color-interpolation-filters:linearRGB;solid-color:#000000;solid-opacity:1;fill:none;fill-opacity:1;fill-rule:nonzero;stroke:#000000;stroke-width:1.20765281;stroke-linecap:round;stroke-linejoin:miter;stroke-miterlimit:4;stroke-dasharray:none;stroke-dashoffset:0;stroke-opacity:1;marker:none;color-rendering:auto;image-rendering:auto;shape-rendering:auto;text-rendering:auto;enable-background:accumulate"
         id="rect21754-9"
         width="44.424103"
         height="7.1937814"
         x="90.507477"
         y="101.64697" />
    </clipPath>
    <marker
       inkscape:stockid="Arrow2Mend"
       orient="auto"
       refY="0"
       refX="0"
       id="Arrow2Mend-3-8"
       style="overflow:visible"
       inkscape:isstock="true">
      <path
         inkscape:connector-curvature="0"
         id="path20940-37-5"
         style="fill:#000000;fill-opacity:1;fill-rule:evenodd;stroke:#000000;stroke-width:0.625;stroke-linejoin:round;stroke-opacity:1"
         d="M 8.7185878,4.0337352 -2.2072895,0.01601326 8.7185884,-4.0017078 c -1.7454984,2.3720609 -1.7354408,5.6174519 -6e-7,8.035443 z"
         transform="scale(-0.6,-0.6)" />
    </marker>
    <clipPath
       clipPathUnits="userSpaceOnUse"
       id="clipPath21752-4-47">
      <rect
         style="color:#000000;clip-rule:nonzero;display:inline;overflow:visible;visibility:visible;opacity:1;isolation:auto;mix-blend-mode:normal;color-interpolation:sRGB;color-interpolation-filters:linearRGB;solid-color:#000000;solid-opacity:1;fill:none;fill-opacity:1;fill-rule:nonzero;stroke:#000000;stroke-width:1.20765281;stroke-linecap:round;stroke-linejoin:miter;stroke-miterlimit:4;stroke-dasharray:none;stroke-dashoffset:0;stroke-opacity:1;marker:none;color-rendering:auto;image-rendering:auto;shape-rendering:auto;text-rendering:auto;enable-background:accumulate"
         id="rect21754-3-8"
         width="44.424103"
         height="7.1937814"
         x="90.507477"
         y="101.64697" />
    </clipPath>
    <marker
       inkscape:stockid="Arrow2Mend"
       orient="auto"
       refY="0"
       refX="0"
       id="Arrow2Mend-5"
       style="overflow:visible"
       inkscape:isstock="true">
      <path
         inkscape:connector-curvature="0"
         id="path20940-87"
         style="fill:#000000;fill-opacity:1;fill-rule:evenodd;stroke:#000000;stroke-width:0.625;stroke-linejoin:round;stroke-opacity:1"
         d="M 8.7185878,4.0337352 -2.2072895,0.01601326 8.7185884,-4.0017078 c -1.7454984,2.3720609 -1.7354408,5.6174519 -6e-7,8.035443 z"
         transform="scale(-0.6,-0.6)" />
    </marker>
    <clipPath
       clipPathUnits="userSpaceOnUse"
       id="clipPath21752-0">
      <rect
         style="color:#000000;clip-rule:nonzero;display:inline;overflow:visible;visibility:visible;opacity:1;isolation:auto;mix-blend-mode:normal;color-interpolation:sRGB;color-interpolation-filters:linearRGB;solid-color:#000000;solid-opacity:1;fill:none;fill-opacity:1;fill-rule:nonzero;stroke:#000000;stroke-width:1.20765281;stroke-linecap:round;stroke-linejoin:miter;stroke-miterlimit:4;stroke-dasharray:none;stroke-dashoffset:0;stroke-opacity:1;marker:none;color-rendering:auto;image-rendering:auto;shape-rendering:auto;text-rendering:auto;enable-background:accumulate"
         id="rect21754-48"
         width="44.424103"
         height="7.1937814"
         x="90.507477"
         y="101.64697" />
    </clipPath>
    <marker
       inkscape:stockid="Arrow2Mend"
       orient="auto"
       refY="0"
       refX="0"
       id="Arrow2Mend-3-0"
       style="overflow:visible"
       inkscape:isstock="true">
      <path
         inkscape:connector-curvature="0"
         id="path20940-37-4"
         style="fill:#000000;fill-opacity:1;fill-rule:evenodd;stroke:#000000;stroke-width:0.625;stroke-linejoin:round;stroke-opacity:1"
         d="M 8.7185878,4.0337352 -2.2072895,0.01601326 8.7185884,-4.0017078 c -1.7454984,2.3720609 -1.7354408,5.6174519 -6e-7,8.035443 z"
         transform="scale(-0.6,-0.6)" />
    </marker>
    <clipPath
       clipPathUnits="userSpaceOnUse"
       id="clipPath21752-4-29">
      <rect
         style="color:#000000;clip-rule:nonzero;display:inline;overflow:visible;visibility:visible;opacity:1;isolation:auto;mix-blend-mode:normal;color-interpolation:sRGB;color-interpolation-filters:linearRGB;solid-color:#000000;solid-opacity:1;fill:none;fill-opacity:1;fill-rule:nonzero;stroke:#000000;stroke-width:1.20765281;stroke-linecap:round;stroke-linejoin:miter;stroke-miterlimit:4;stroke-dasharray:none;stroke-dashoffset:0;stroke-opacity:1;marker:none;color-rendering:auto;image-rendering:auto;shape-rendering:auto;text-rendering:auto;enable-background:accumulate"
         id="rect21754-3-6"
         width="44.424103"
         height="7.1937814"
         x="90.507477"
         y="101.64697" />
    </clipPath>
  </defs>
  <metadata
     id="metadata15694">
    <rdf:RDF>
      <cc:Work
         rdf:about="">
        <dc:format>image/svg+xml</dc:format>
        <dc:type
           rdf:resource="http://purl.org/dc/dcmitype/StillImage" />
        <dc:title></dc:title>
      </cc:Work>
    </rdf:RDF>
  </metadata>
  <g
     transform="translate(13.246271,23.906205)"
     id="layer1"
     inkscape:groupmode="layer"
     inkscape:label="Layer 1">
    <text
       xml:space="preserve"
       style="font-style:normal;font-weight:normal;font-size:45px;line-height:125%;font-family:sans-serif;text-align:center;letter-spacing:0px;word-spacing:2px;text-anchor:middle;fill:#000000;fill-opacity:1;stroke:none;stroke-width:1px;stroke-linecap:butt;stroke-linejoin:miter;stroke-opacity:1"
       x="84.5"
       y="119.86219"
       id="text21342"
       sodipodi:linespacing="125%" />
    <g
       ns0:preamble="/home/jonas/Dropbox/csr/equation/preamble.tex"
       ns0:text="$C$"
       word-spacing="normal"
       letter-spacing="normal"
       font-size-adjust="none"
       font-stretch="normal"
       font-weight="normal"
       font-variant="normal"
       font-style="normal"
       stroke-miterlimit="10.433"
       xml:space="preserve"
       transform="matrix(3.4272982,0,0,-3.4272982,-777.17784,1651.8851)"
       id="content"
       style="font-style:normal;font-variant:normal;font-weight:normal;font-stretch:normal;letter-spacing:normal;word-spacing:normal;text-anchor:start;fill:none;fill-opacity:1;fill-rule:evenodd;stroke:#000000;stroke-width:0.29177502;stroke-linecap:butt;stroke-linejoin:miter;stroke-miterlimit:10.43299961;stroke-dasharray:none;stroke-dashoffset:0;stroke-opacity:1"><path
         id="path4391"
         d="m 231,484.16 0,0 0,0 0,0.01 0,0 0,0 0,0.01 0,0 0,0 0,0.01 0,0 -0.01,0.01 0,0 0,0.01 0,0 0,0 -0.01,0.01 0,0 0,0.01 -0.01,0 0,0 -0.01,0.01 0,0 -0.01,0 0,0 -0.01,0.01 0,0 0,0 -0.01,0 0,0 0,0 -0.01,0 0,0 0,0 -0.01,0 0,0.01 0,0 -0.01,0 0,0 -0.01,0 c -0.02,0 -0.04,-0.01 -0.15,-0.12 l -0.69,-0.77 c -0.09,0.14 -0.55,0.89 -1.66,0.89 -2.22,0 -4.46,-2.21 -4.46,-4.52 0,-1.64 1.18,-2.73 2.7,-2.73 0.87,0 1.62,0.4 2.15,0.86 0.93,0.82 1.1,1.72 1.1,1.75 0,0.1 -0.1,0.1 -0.12,0.1 -0.06,0 -0.11,-0.02 -0.13,-0.1 -0.09,-0.29 -0.32,-0.99 -1.01,-1.57 -0.68,-0.56 -1.31,-0.73 -1.83,-0.73 -0.9,0 -1.95,0.52 -1.95,2.07 0,0.57 0.21,2.19 1.2,3.35 0.61,0.71 1.55,1.21 2.43,1.21 1.02,0 1.61,-0.77 1.61,-1.93 0,-0.39 -0.03,-0.4 -0.03,-0.5 0,-0.1 0.11,-0.1 0.15,-0.1 0.13,0 0.13,0.02 0.18,0.2 z"
         inkscape:connector-curvature="0"
         style="fill:#000000;stroke-width:0" /></g>    <g
       id="g4517"
       transform="matrix(3.4272982,0,0,-3.4272982,-693.77508,1651.8851)"
       xml:space="preserve"
       stroke-miterlimit="10.433"
       font-style="normal"
       font-variant="normal"
       font-weight="normal"
       font-stretch="normal"
       font-size-adjust="none"
       letter-spacing="normal"
       word-spacing="normal"
       ns0:text="$O$"
       ns0:preamble="/home/jonas/Dropbox/csr/equation/preamble.tex"
       style="font-style:normal;font-variant:normal;font-weight:normal;font-stretch:normal;letter-spacing:normal;word-spacing:normal;text-anchor:start;fill:none;fill-opacity:1;fill-rule:evenodd;stroke:#000000;stroke-width:0.29177502;stroke-linecap:butt;stroke-linejoin:miter;stroke-miterlimit:10.43299961;stroke-dasharray:none;stroke-dashoffset:0;stroke-opacity:1"><path
         style="fill:#000000;stroke-width:0"
         inkscape:connector-curvature="0"
         d="m 230.8,481.58 0,0.14 -0.01,0.15 -0.01,0.14 -0.02,0.14 -0.03,0.14 -0.03,0.13 -0.04,0.13 -0.04,0.12 -0.05,0.12 -0.06,0.12 -0.05,0.11 -0.07,0.11 -0.07,0.1 -0.07,0.1 -0.08,0.1 -0.08,0.09 -0.09,0.08 -0.09,0.08 -0.09,0.08 -0.1,0.07 -0.1,0.07 -0.11,0.06 -0.11,0.05 -0.11,0.05 -0.12,0.05 -0.12,0.04 -0.12,0.03 -0.13,0.03 -0.13,0.02 -0.13,0.01 -0.14,0.01 -0.14,0.01 -0.05,-0.25 c 0.81,0 1.71,-0.56 1.71,-2.05 0,-0.71 -0.27,-2.27 -1.26,-3.49 -0.48,-0.61 -1.29,-1.2 -2.13,-1.2 l 0,0 c -0.99,0 -1.68,0.81 -1.68,2.12 0,0.44 0.14,1.9 0.9,3.06 0.69,1.04 1.67,1.56 2.46,1.56 l 0.05,0.25 c -2.15,0 -4.34,-2.27 -4.34,-4.59 0,-1.65 1.12,-2.66 2.55,-2.66 2.11,0 4.33,2.19 4.33,4.57 z"
         id="path4519" /></g>    <g
       id="g22011"
       transform="translate(-64.618386,-82.823499)">
      <path
         transform="translate(-3.1377864,-21.92031)"
         clip-path="url(#clipPath21752)"
         sodipodi:nodetypes="cc"
         inkscape:connector-curvature="0"
         id="path20905"
         d="m 92.733106,108.44448 35.904694,0"
         style="fill:none;fill-rule:evenodd;stroke:#000000;stroke-width:2;stroke-linecap:round;stroke-linejoin:miter;stroke-miterlimit:4;stroke-dasharray:none;stroke-opacity:1;marker-end:url(#Arrow2Mend)" />
      <path
         transform="matrix(-1,0,0,-1,220.24255,196.77856)"
         clip-path="url(#clipPath21752-4)"
         sodipodi:nodetypes="cc"
         inkscape:connector-curvature="0"
         id="path20905-7"
         d="m 92.733106,108.44448 35.904694,0"
         style="fill:none;fill-rule:evenodd;stroke:#000000;stroke-width:2;stroke-linecap:round;stroke-linejoin:miter;stroke-miterlimit:4;stroke-dasharray:none;stroke-opacity:1;marker-end:url(#Arrow2Mend-3)" />
    </g>
    <g
       id="g6280"
       transform="matrix(1.5813332,0,0,1.5813333,-25.540297,1.1975936)">
      <g
         style="font-style:normal;font-variant:normal;font-weight:normal;font-stretch:normal;letter-spacing:normal;word-spacing:normal;text-anchor:start;fill:none;fill-opacity:1;fill-rule:evenodd;stroke:#000000;stroke-width:0.6323778;stroke-linecap:butt;stroke-linejoin:miter;stroke-miterlimit:10.43299961;stroke-dasharray:none;stroke-dashoffset:0;stroke-opacity:1"
         ns0:preamble="/home/jonas/Dropbox/csr/equation/preamble.tex"
         ns0:text="$k_{co}$"
         word-spacing="normal"
         letter-spacing="normal"
         font-size-adjust="none"
         font-stretch="normal"
         font-weight="normal"
         font-variant="normal"
         font-style="normal"
         stroke-miterlimit="10.433"
         xml:space="preserve"
         transform="matrix(1,0,0,-1,-185.996,470.51563)"
         id="g4744"><path
           id="path4746"
           d="m 226.29,484.04 0,0 0,0 0,0 0,0 0,0 0,0.01 0,0 0,0 0,0.01 0,0 0,0.01 0,0 0,0.01 -0.01,0 0,0.01 0,0 0,0.01 -0.01,0 0,0.01 -0.01,0 0,0 0,0.01 0,0 -0.01,0 0,0 0,0.01 -0.01,0 0,0 0,0 -0.01,0 0,0 0,0.01 -0.01,0 0,0 -0.01,0 0,0 -0.01,0 0,0 0,0 -0.01,0.01 -0.01,0 0,0 -0.01,0 0,0 -0.01,0 c -0.23,0 -0.95,-0.08 -1.21,-0.1 -0.08,-0.01 -0.19,-0.02 -0.19,-0.2 0,-0.12 0.09,-0.12 0.24,-0.12 0.48,0 0.49,-0.07 0.49,-0.17 l -0.03,-0.2 -1.44,-5.74 c -0.04,-0.14 -0.04,-0.16 -0.04,-0.22 0,-0.23 0.2,-0.28 0.29,-0.28 0.13,0 0.28,0.09 0.34,0.21 0.05,0.09 0.5,1.94 0.56,2.18 0.34,-0.03 1.15,-0.18 1.15,-0.84 0,-0.07 0,-0.11 -0.03,-0.21 -0.02,-0.12 -0.04,-0.24 -0.04,-0.35 0,-0.59 0.4,-0.99 0.92,-0.99 0.3,0 0.57,0.16 0.79,0.53 0.25,0.44 0.35,0.99 0.35,1.01 0,0.1 -0.08,0.1 -0.11,0.1 -0.1,0 -0.11,-0.04 -0.15,-0.18 -0.19,-0.73 -0.42,-1.24 -0.86,-1.24 -0.19,0 -0.32,0.11 -0.32,0.47 0,0.17 0.04,0.4 0.08,0.56 0.04,0.17 0.04,0.21 0.04,0.31 0,0.65 -0.63,0.93 -1.48,1.04 0.31,0.18 0.63,0.5 0.86,0.74 0.48,0.53 0.94,0.96 1.43,0.96 0.06,0 0.07,0 0.09,-0.01 0.12,-0.02 0.12,-0.02 0.21,-0.08 0.02,-0.01 0.02,-0.02 0.03,-0.04 -0.47,-0.03 -0.56,-0.42 -0.56,-0.54 0,-0.16 0.11,-0.35 0.38,-0.35 0.26,0 0.54,0.22 0.54,0.61 0,0.3 -0.23,0.63 -0.67,0.63 -0.28,0 -0.74,-0.08 -1.46,-0.88 -0.34,-0.38 -0.73,-0.78 -1.1,-0.93 z"
           inkscape:connector-curvature="0"
           style="fill:#000000;stroke-width:0" /><path
           id="path4748"
           d="m 231.68,478.41 -0.03,0 -0.02,-0.01 -0.02,0 -0.02,-0.01 -0.02,-0.01 -0.02,-0.01 -0.02,-0.01 -0.01,-0.01 -0.02,-0.01 -0.02,-0.01 -0.01,-0.01 -0.02,-0.01 -0.01,-0.01 -0.01,-0.02 -0.01,-0.01 -0.02,-0.01 -0.01,-0.02 -0.01,-0.01 0,-0.02 -0.01,-0.01 -0.01,-0.01 -0.01,-0.02 0,-0.01 -0.01,-0.02 0,-0.02 -0.01,-0.01 0,-0.02 0,-0.01 -0.01,-0.02 0,-0.01 0,-0.02 0,-0.01 c 0,-0.19 0.15,-0.26 0.27,-0.26 0.16,0 0.4,0.11 0.4,0.45 0,0.47 -0.54,0.61 -0.92,0.61 -1.05,0 -2.02,-0.97 -2.02,-1.94 0,-0.6 0.42,-1.21 1.3,-1.21 1.17,0 1.72,0.69 1.72,0.79 0,0.04 -0.06,0.12 -0.11,0.12 -0.05,0 -0.06,-0.02 -0.12,-0.07 -0.54,-0.64 -1.36,-0.64 -1.48,-0.64 -0.5,0 -0.73,0.34 -0.73,0.77 0,0.2 0.1,0.96 0.46,1.44 0.27,0.34 0.63,0.54 0.98,0.54 0.1,0 0.43,-0.01 0.61,-0.21 z"
           inkscape:connector-curvature="0"
           style="fill:#000000;stroke-width:0" /><path
           id="path4750"
           d="m 235.88,477.6 0,0.07 -0.01,0.07 0,0.06 -0.02,0.07 -0.01,0.06 -0.02,0.06 -0.02,0.06 -0.02,0.06 -0.03,0.06 -0.02,0.05 -0.03,0.05 -0.04,0.05 -0.03,0.05 -0.04,0.04 -0.04,0.05 -0.04,0.04 -0.05,0.03 -0.04,0.04 -0.05,0.03 -0.05,0.03 -0.05,0.03 -0.06,0.03 -0.05,0.02 -0.06,0.02 -0.05,0.02 -0.06,0.02 -0.06,0.01 -0.06,0.01 -0.06,0.01 -0.07,0.01 -0.06,0 -0.06,0.01 -0.01,-0.2 c 0.38,0 0.7,-0.26 0.7,-0.77 0,-0.17 -0.08,-0.86 -0.39,-1.35 -0.27,-0.41 -0.68,-0.63 -1.03,-0.63 l 0,0 c -0.35,0 -0.7,0.22 -0.7,0.77 0,0.29 0.13,0.97 0.4,1.37 0.3,0.43 0.71,0.61 1.02,0.61 l 0.01,0.2 c -1.03,0 -2.01,-0.97 -2.01,-1.93 0,-0.7 0.51,-1.22 1.27,-1.22 1,0 2,0.92 2,1.93 z"
           inkscape:connector-curvature="0"
           style="fill:#000000;stroke-width:0" /></g>    </g>
    <g
       id="g6286"
       transform="matrix(1.5813332,0,0,1.5813333,-25.643084,-6.5524064)">
      <g
         id="g4912"
         transform="matrix(1,0,0,-1,-185.996,498.51563)"
         xml:space="preserve"
         stroke-miterlimit="10.433"
         font-style="normal"
         font-variant="normal"
         font-weight="normal"
         font-stretch="normal"
         font-size-adjust="none"
         letter-spacing="normal"
         word-spacing="normal"
         ns0:text="$k_{oc}$"
         ns0:preamble="/home/jonas/Dropbox/csr/equation/preamble.tex"
         style="font-style:normal;font-variant:normal;font-weight:normal;font-stretch:normal;letter-spacing:normal;word-spacing:normal;text-anchor:start;fill:none;fill-opacity:1;fill-rule:evenodd;stroke:#000000;stroke-width:0.6323778;stroke-linecap:butt;stroke-linejoin:miter;stroke-miterlimit:10.43299961;stroke-dasharray:none;stroke-dashoffset:0;stroke-opacity:1"><path
           d="m 226.29,484.04 0,0 0,0 0,0 0,0 0,0 0,0.01 0,0 0,0 0,0.01 0,0 0,0.01 0,0 0,0.01 -0.01,0 0,0.01 0,0 0,0.01 -0.01,0 0,0.01 -0.01,0 0,0 0,0.01 0,0 -0.01,0 0,0 0,0.01 -0.01,0 0,0 0,0 -0.01,0 0,0 0,0.01 -0.01,0 0,0 -0.01,0 0,0 -0.01,0 0,0 0,0 -0.01,0.01 -0.01,0 0,0 -0.01,0 0,0 -0.01,0 c -0.23,0 -0.95,-0.08 -1.21,-0.1 -0.08,-0.01 -0.19,-0.02 -0.19,-0.2 0,-0.12 0.09,-0.12 0.24,-0.12 0.48,0 0.49,-0.07 0.49,-0.17 l -0.03,-0.2 -1.44,-5.74 c -0.04,-0.14 -0.04,-0.16 -0.04,-0.22 0,-0.23 0.2,-0.28 0.29,-0.28 0.13,0 0.28,0.09 0.34,0.21 0.05,0.09 0.5,1.94 0.56,2.18 0.34,-0.03 1.15,-0.18 1.15,-0.84 0,-0.07 0,-0.11 -0.03,-0.21 -0.02,-0.12 -0.04,-0.24 -0.04,-0.35 0,-0.59 0.4,-0.99 0.92,-0.99 0.3,0 0.57,0.16 0.79,0.53 0.25,0.44 0.35,0.99 0.35,1.01 0,0.1 -0.08,0.1 -0.11,0.1 -0.1,0 -0.11,-0.04 -0.15,-0.18 -0.19,-0.73 -0.42,-1.24 -0.86,-1.24 -0.19,0 -0.32,0.11 -0.32,0.47 0,0.17 0.04,0.4 0.08,0.56 0.04,0.17 0.04,0.21 0.04,0.31 0,0.65 -0.63,0.93 -1.48,1.04 0.31,0.18 0.63,0.5 0.86,0.74 0.48,0.53 0.94,0.96 1.43,0.96 0.06,0 0.07,0 0.09,-0.01 0.12,-0.02 0.12,-0.02 0.21,-0.08 0.02,-0.01 0.02,-0.02 0.03,-0.04 -0.47,-0.03 -0.56,-0.42 -0.56,-0.54 0,-0.16 0.11,-0.35 0.38,-0.35 0.26,0 0.54,0.22 0.54,0.61 0,0.3 -0.23,0.63 -0.67,0.63 -0.28,0 -0.74,-0.08 -1.46,-0.88 -0.34,-0.38 -0.73,-0.78 -1.1,-0.93 z"
           id="path4914"
           inkscape:connector-curvature="0"
           style="fill:#000000;stroke-width:0" /><path
           d="m 232.33,477.6 -0.01,0.07 0,0.07 -0.01,0.06 -0.01,0.07 -0.01,0.06 -0.02,0.06 -0.02,0.06 -0.03,0.06 -0.02,0.06 -0.03,0.05 -0.03,0.05 -0.03,0.05 -0.04,0.05 -0.04,0.04 -0.04,0.05 -0.04,0.04 -0.04,0.03 -0.05,0.04 -0.05,0.03 -0.05,0.03 -0.05,0.03 -0.05,0.03 -0.06,0.02 -0.05,0.02 -0.06,0.02 -0.06,0.02 -0.06,0.01 -0.06,0.01 -0.06,0.01 -0.06,0.01 -0.06,0 -0.07,0.01 0,-0.2 c 0.37,0 0.69,-0.26 0.69,-0.77 0,-0.17 -0.08,-0.86 -0.39,-1.35 -0.26,-0.41 -0.68,-0.63 -1.03,-0.63 l 0,0 c -0.35,0 -0.7,0.22 -0.7,0.77 0,0.29 0.14,0.97 0.41,1.37 0.3,0.43 0.7,0.61 1.02,0.61 l 0,0.2 c -1.03,0 -2.01,-0.97 -2.01,-1.93 0,-0.7 0.51,-1.22 1.27,-1.22 1,0 2.01,0.92 2.01,1.93 z"
           id="path4916"
           inkscape:connector-curvature="0"
           style="fill:#000000;stroke-width:0" /><path
           d="m 235.61,478.41 -0.03,0 -0.02,-0.01 -0.02,0 -0.02,-0.01 -0.02,-0.01 -0.02,-0.01 -0.02,-0.01 -0.01,-0.01 -0.02,-0.01 -0.02,-0.01 -0.01,-0.01 -0.02,-0.01 -0.01,-0.01 -0.01,-0.02 -0.01,-0.01 -0.02,-0.01 -0.01,-0.02 -0.01,-0.01 0,-0.02 -0.01,-0.01 -0.01,-0.01 -0.01,-0.02 0,-0.01 -0.01,-0.02 0,-0.02 -0.01,-0.01 0,-0.02 0,-0.01 -0.01,-0.02 0,-0.01 0,-0.02 0,-0.01 c 0,-0.19 0.15,-0.26 0.27,-0.26 0.16,0 0.4,0.11 0.4,0.45 0,0.47 -0.54,0.61 -0.92,0.61 -1.05,0 -2.01,-0.97 -2.01,-1.94 0,-0.6 0.41,-1.21 1.28,-1.21 1.18,0 1.74,0.69 1.74,0.79 0,0.04 -0.07,0.12 -0.12,0.12 -0.05,0 -0.06,-0.02 -0.12,-0.07 -0.54,-0.64 -1.36,-0.64 -1.48,-0.64 -0.5,0 -0.73,0.34 -0.73,0.77 0,0.2 0.1,0.96 0.46,1.44 0.27,0.34 0.63,0.54 0.98,0.54 0.1,0 0.43,-0.01 0.61,-0.21 z"
           id="path4918"
           inkscape:connector-curvature="0"
           style="fill:#000000;stroke-width:0" /></g>    </g>
  </g>
</svg>
