<?xml version="1.0" encoding="UTF-8" standalone="no"?>
<!-- Created with Inkscape (http://www.inkscape.org/) -->

<svg
   xmlns:ns0="http://www.iki.fi/pav/software/textext/"
   xmlns:dc="http://purl.org/dc/elements/1.1/"
   xmlns:cc="http://creativecommons.org/ns#"
   xmlns:rdf="http://www.w3.org/1999/02/22-rdf-syntax-ns#"
   xmlns:svg="http://www.w3.org/2000/svg"
   xmlns="http://www.w3.org/2000/svg"
   xmlns:sodipodi="http://sodipodi.sourceforge.net/DTD/sodipodi-0.dtd"
   xmlns:inkscape="http://www.inkscape.org/namespaces/inkscape"
   width="58.131256mm"
   height="27.734125mm"
   viewBox="0 0 205.9769 98.270521"
   id="svg23626"
   version="1.1"
   inkscape:version="0.91 r13725"
   sodipodi:docname="nernst_b.svg"
   inkscape:export-filename="/home/jonas/suurph/sschool18/fig/nernst.png"
   inkscape:export-xdpi="300"
   inkscape:export-ydpi="300">
  <sodipodi:namedview
     id="base"
     pagecolor="#ffffff"
     bordercolor="#666666"
     borderopacity="1.0"
     inkscape:pageopacity="0.0"
     inkscape:pageshadow="2"
     inkscape:zoom="3.959798"
     inkscape:cx="70.346891"
     inkscape:cy="3.5974313"
     inkscape:document-units="px"
     inkscape:current-layer="layer1"
     showgrid="false"
     inkscape:window-width="1920"
     inkscape:window-height="1170"
     inkscape:window-x="0"
     inkscape:window-y="30"
     inkscape:window-maximized="1"
     fit-margin-top="-1"
     fit-margin-left="2"
     fit-margin-right="2"
     fit-margin-bottom="-1" />
  <defs
     id="defs23628">
    <marker
       inkscape:isstock="true"
       style="overflow:visible"
       id="marker24686"
       refX="0.0"
       refY="0.0"
       orient="auto"
       inkscape:stockid="DotM">
      <path
         transform="scale(0.4) translate(7.4, 1)"
         style="fill-rule:evenodd;stroke:#000000;stroke-width:1pt;stroke-opacity:1;fill:#000000;fill-opacity:1"
         d="M -2.5,-1.0 C -2.5,1.7600000 -4.7400000,4.0 -7.5,4.0 C -10.260000,4.0 -12.5,1.7600000 -12.5,-1.0 C -12.5,-3.7600000 -10.260000,-6.0 -7.5,-6.0 C -4.7400000,-6.0 -2.5,-3.7600000 -2.5,-1.0 z "
         id="path24688" />
    </marker>
    <marker
       inkscape:isstock="true"
       style="overflow:visible"
       id="marker24617"
       refX="0.0"
       refY="0.0"
       orient="auto"
       inkscape:stockid="DotM">
      <path
         transform="scale(0.4) translate(7.4, 1)"
         style="fill-rule:evenodd;stroke:#000000;stroke-width:1pt;stroke-opacity:1;fill:#000000;fill-opacity:1"
         d="M -2.5,-1.0 C -2.5,1.7600000 -4.7400000,4.0 -7.5,4.0 C -10.260000,4.0 -12.5,1.7600000 -12.5,-1.0 C -12.5,-3.7600000 -10.260000,-6.0 -7.5,-6.0 C -4.7400000,-6.0 -2.5,-3.7600000 -2.5,-1.0 z "
         id="path24619" />
    </marker>
    <marker
       inkscape:isstock="true"
       style="overflow:visible"
       id="marker24584"
       refX="0.0"
       refY="0.0"
       orient="auto"
       inkscape:stockid="DotM">
      <path
         transform="scale(0.4) translate(7.4, 1)"
         style="fill-rule:evenodd;stroke:#000000;stroke-width:1pt;stroke-opacity:1;fill:#000000;fill-opacity:1"
         d="M -2.5,-1.0 C -2.5,1.7600000 -4.7400000,4.0 -7.5,4.0 C -10.260000,4.0 -12.5,1.7600000 -12.5,-1.0 C -12.5,-3.7600000 -10.260000,-6.0 -7.5,-6.0 C -4.7400000,-6.0 -2.5,-3.7600000 -2.5,-1.0 z "
         id="path24586" />
    </marker>
    <marker
       inkscape:stockid="DotM"
       orient="auto"
       refY="0.0"
       refX="0.0"
       id="DotM"
       style="overflow:visible"
       inkscape:isstock="true"
       inkscape:collect="always">
      <path
         id="path20977"
         d="M -2.5,-1.0 C -2.5,1.7600000 -4.7400000,4.0 -7.5,4.0 C -10.260000,4.0 -12.5,1.7600000 -12.5,-1.0 C -12.5,-3.7600000 -10.260000,-6.0 -7.5,-6.0 C -4.7400000,-6.0 -2.5,-3.7600000 -2.5,-1.0 z "
         style="fill-rule:evenodd;stroke:#000000;stroke-width:1pt;stroke-opacity:1;fill:#000000;fill-opacity:1"
         transform="scale(0.4) translate(7.4, 1)" />
    </marker>
    <marker
       inkscape:stockid="DotS"
       orient="auto"
       refY="0.0"
       refX="0.0"
       id="DotS"
       style="overflow:visible"
       inkscape:isstock="true">
      <path
         id="path20980"
         d="M -2.5,-1.0 C -2.5,1.7600000 -4.7400000,4.0 -7.5,4.0 C -10.260000,4.0 -12.5,1.7600000 -12.5,-1.0 C -12.5,-3.7600000 -10.260000,-6.0 -7.5,-6.0 C -4.7400000,-6.0 -2.5,-3.7600000 -2.5,-1.0 z "
         style="fill-rule:evenodd;stroke:#000000;stroke-width:1pt;stroke-opacity:1;fill:#000000;fill-opacity:1"
         transform="scale(0.2) translate(7.4, 1)" />
    </marker>
    <marker
       inkscape:stockid="DotM"
       orient="auto"
       refY="0"
       refX="0"
       id="DotM-0"
       style="overflow:visible"
       inkscape:isstock="true">
      <path
         inkscape:connector-curvature="0"
         id="path20977-2"
         d="m -2.5,-1 c 0,2.76 -2.24,5 -5,5 -2.76,0 -5,-2.24 -5,-5 0,-2.76 2.24,-5 5,-5 2.76,0 5,2.24 5,5 z"
         style="fill:#000000;fill-opacity:1;fill-rule:evenodd;stroke:#000000;stroke-width:1pt;stroke-opacity:1"
         transform="matrix(0.4,0,0,0.4,2.96,0.4)" />
    </marker>
    <marker
       inkscape:stockid="DotM"
       orient="auto"
       refY="0"
       refX="0"
       id="DotM-3"
       style="overflow:visible"
       inkscape:isstock="true">
      <path
         inkscape:connector-curvature="0"
         id="path20977-8"
         d="m -2.5,-1 c 0,2.76 -2.24,5 -5,5 -2.76,0 -5,-2.24 -5,-5 0,-2.76 2.24,-5 5,-5 2.76,0 5,2.24 5,5 z"
         style="fill:#000000;fill-opacity:1;fill-rule:evenodd;stroke:#000000;stroke-width:1pt;stroke-opacity:1"
         transform="matrix(0.4,0,0,0.4,2.96,0.4)" />
    </marker>
    <marker
       inkscape:stockid="DotM"
       orient="auto"
       refY="0"
       refX="0"
       id="DotM-05"
       style="overflow:visible"
       inkscape:isstock="true">
      <path
         inkscape:connector-curvature="0"
         id="path20977-6"
         d="m -2.5,-1 c 0,2.76 -2.24,5 -5,5 -2.76,0 -5,-2.24 -5,-5 0,-2.76 2.24,-5 5,-5 2.76,0 5,2.24 5,5 z"
         style="fill:#000000;fill-opacity:1;fill-rule:evenodd;stroke:#000000;stroke-width:1pt;stroke-opacity:1"
         transform="matrix(0.4,0,0,0.4,2.96,0.4)" />
    </marker>
  </defs>
  <metadata
     id="metadata23631">
    <rdf:RDF>
      <cc:Work
         rdf:about="">
        <dc:format>image/svg+xml</dc:format>
        <dc:type
           rdf:resource="http://purl.org/dc/dcmitype/StillImage" />
        <dc:title></dc:title>
      </cc:Work>
    </rdf:RDF>
  </metadata>
  <g
     inkscape:label="Layer 1"
     inkscape:groupmode="layer"
     id="layer1"
     transform="translate(-42.487261,-33.048372)">
    <text
       xml:space="preserve"
       style="font-style:normal;font-variant:normal;font-weight:normal;font-stretch:normal;font-size:15px;line-height:125%;font-family:Calibri;-inkscape-font-specification:Calibri;text-align:center;letter-spacing:0px;word-spacing:2px;text-anchor:middle;fill:#000000;fill-opacity:1;stroke:none;stroke-width:1px;stroke-linecap:butt;stroke-linejoin:miter;stroke-opacity:1"
       x="84.905907"
       y="47.112206"
       id="text24176"
       sodipodi:linespacing="125%"><tspan
         sodipodi:role="line"
         id="tspan24178"
         x="84.905907"
         y="47.112206">Intracellular</tspan></text>
    <text
       xml:space="preserve"
       style="font-style:normal;font-variant:normal;font-weight:normal;font-stretch:normal;font-size:15px;line-height:125%;font-family:Calibri;-inkscape-font-specification:Calibri;text-align:center;letter-spacing:0px;word-spacing:2px;text-anchor:middle;fill:#000000;fill-opacity:1;stroke:none;stroke-width:1px;stroke-linecap:butt;stroke-linejoin:miter;stroke-opacity:1"
       x="203.87022"
       y="47.112206"
       id="text24176-6"
       sodipodi:linespacing="125%"><tspan
         sodipodi:role="line"
         id="tspan24178-1"
         x="203.87022"
         y="47.112206">Extracellular</tspan></text>
    <g
       style="font-style:normal;font-variant:normal;font-weight:normal;font-stretch:normal;letter-spacing:normal;word-spacing:normal;text-anchor:start;fill:none;fill-opacity:1;fill-rule:evenodd;stroke:#000000;stroke-linecap:butt;stroke-linejoin:miter;stroke-miterlimit:10.43299961;stroke-dasharray:none;stroke-dashoffset:0;stroke-opacity:1"
       id="content"
       transform="matrix(1,0,0,-1,-19.173083,560.74668)"
       xml:space="preserve"
       stroke-miterlimit="10.433"
       font-style="normal"
       font-variant="normal"
       font-weight="normal"
       font-stretch="normal"
       font-size-adjust="none"
       letter-spacing="normal"
       word-spacing="normal"
       ns0:text="$c_{\\rm e}$"
       ns0:preamble="/home/jonas/Dropbox/csr/equation/preamble.tex"><path
         style="fill:#000000;stroke-width:0"
         inkscape:connector-curvature="0"
         d="m 227.38,481.02 -0.03,0 -0.03,0 -0.03,0 -0.03,0 -0.03,-0.01 -0.02,0 -0.02,0 -0.01,0 -0.02,-0.01 -0.01,0 -0.01,0 -0.02,-0.01 -0.01,0 -0.01,-0.01 -0.02,0 -0.01,-0.01 -0.01,0 -0.02,-0.01 -0.01,-0.01 -0.01,-0.01 -0.02,-0.01 -0.01,-0.01 -0.01,-0.01 -0.01,-0.01 -0.02,-0.01 -0.01,-0.01 c -0.16,-0.15 -0.18,-0.32 -0.18,-0.39 0,-0.24 0.18,-0.35 0.37,-0.35 0.29,0 0.56,0.24 0.56,0.64 0,0.49 -0.47,0.86 -1.18,0.86 -1.34,0 -2.67,-1.43 -2.67,-2.83 0,-0.9 0.58,-1.69 1.62,-1.69 1.42,0 2.26,1.06 2.26,1.18 0,0.06 -0.06,0.13 -0.12,0.13 -0.05,0 -0.07,-0.02 -0.13,-0.1 -0.79,-0.99 -1.88,-0.99 -1.99,-0.99 -0.63,0 -0.9,0.49 -0.9,1.09 0,0.41 0.2,1.37 0.54,1.99 0.31,0.57 0.85,1 1.4,1 0.34,0 0.72,-0.13 0.86,-0.4 z"
         id="path24228" /><path
         style="fill:#000000;stroke-width:0"
         inkscape:connector-curvature="0"
         d="m 230.81,477.33 0.02,0 0.01,0 0.01,0 0.01,0 0.01,0 0.02,0 0.01,0 0.01,0 0,0 0.01,0 0.01,0.01 0.01,0 0.01,0 0,0 0.01,0.01 0.01,0 0,0 0.01,0.01 0,0 0.01,0.01 0,0 0,0.01 0.01,0.01 0,0 0,0 0,0.01 0,0 0,0.01 0,0 0,0.01 0.01,0 0,0.01 0,0 0,0.01 0,0 0,0.01 0,0.01 0,0 0,0.01 0,0.01 0,0 c 0,0.62 -0.34,1.37 -1.38,1.37 -0.92,0 -1.61,-0.73 -1.61,-1.58 0,-0.89 0.77,-1.6 1.7,-1.6 0.94,0 1.29,0.75 1.29,0.91 0,0.03 -0.02,0.09 -0.12,0.09 -0.09,0 -0.1,-0.04 -0.13,-0.11 -0.21,-0.56 -0.74,-0.67 -0.99,-0.67 -0.33,0 -0.64,0.15 -0.85,0.41 -0.26,0.33 -0.27,0.76 -0.27,1.03 l 0.01,0.18 c 0.08,0.98 0.7,1.14 0.97,1.14 0.86,0 0.88,-0.96 0.89,-1.14 l -1.86,0 -0.01,-0.18 z"
         id="path24230" /></g>    <g
       style="font-style:normal;font-variant:normal;font-weight:normal;font-stretch:normal;letter-spacing:normal;word-spacing:normal;text-anchor:start;fill:none;fill-opacity:1;fill-rule:evenodd;stroke:#000000;stroke-linecap:butt;stroke-linejoin:miter;stroke-miterlimit:10.43299961;stroke-dasharray:none;stroke-dashoffset:0;stroke-opacity:1"
       ns0:preamble="/home/jonas/Dropbox/csr/equation/preamble.tex"
       ns0:text="$c_{\\rm i}$"
       word-spacing="normal"
       letter-spacing="normal"
       font-size-adjust="none"
       font-stretch="normal"
       font-weight="normal"
       font-variant="normal"
       font-style="normal"
       stroke-miterlimit="10.433"
       xml:space="preserve"
       transform="matrix(1,0,0,-1,-148.49643,541.80293)"
       id="g24281"><path
         id="path24283"
         d="m 227.38,481.02 -0.03,0 -0.03,0 -0.03,0 -0.03,0 -0.03,-0.01 -0.02,0 -0.02,0 -0.01,0 -0.02,-0.01 -0.01,0 -0.01,0 -0.02,-0.01 -0.01,0 -0.01,-0.01 -0.02,0 -0.01,-0.01 -0.01,0 -0.02,-0.01 -0.01,-0.01 -0.01,-0.01 -0.02,-0.01 -0.01,-0.01 -0.01,-0.01 -0.01,-0.01 -0.02,-0.01 -0.01,-0.01 c -0.16,-0.15 -0.18,-0.32 -0.18,-0.39 0,-0.24 0.18,-0.35 0.37,-0.35 0.29,0 0.56,0.24 0.56,0.64 0,0.49 -0.47,0.86 -1.18,0.86 -1.34,0 -2.67,-1.43 -2.67,-2.83 0,-0.9 0.58,-1.69 1.62,-1.69 1.42,0 2.26,1.06 2.26,1.18 0,0.06 -0.06,0.13 -0.12,0.13 -0.05,0 -0.07,-0.02 -0.13,-0.1 -0.79,-0.99 -1.88,-0.99 -1.99,-0.99 -0.63,0 -0.9,0.49 -0.9,1.09 0,0.41 0.2,1.37 0.54,1.99 0.31,0.57 0.85,1 1.4,1 0.34,0 0.72,-0.13 0.86,-0.4 z"
         inkscape:connector-curvature="0"
         style="fill:#000000;stroke-width:0" /><path
         id="path24285"
         d="m 229.22,480.04 0,0.02 -0.01,0.02 0,0.02 0,0.02 -0.01,0.02 0,0.01 -0.01,0.02 0,0.02 -0.01,0.02 -0.01,0.01 -0.01,0.02 -0.01,0.02 -0.01,0.01 -0.01,0.02 -0.01,0.01 -0.02,0.02 -0.01,0.01 -0.02,0.01 -0.01,0.02 -0.02,0.01 -0.01,0.01 -0.02,0.01 -0.02,0.01 -0.01,0.01 -0.02,0 -0.02,0.01 -0.02,0.01 -0.02,0 -0.02,0.01 -0.02,0 -0.03,0 -0.02,0 c -0.21,0 -0.4,-0.17 -0.4,-0.4 0,-0.25 0.21,-0.4 0.4,-0.4 0.23,0 0.41,0.17 0.41,0.4 z"
         inkscape:connector-curvature="0"
         style="fill:#000000;stroke-width:0" /><path
         id="path24287"
         d="m 228.16,478.74 0,-0.25 c 0.44,0 0.5,-0.04 0.5,-0.39 l 0,-1.81 c 0,-0.3 -0.07,-0.3 -0.52,-0.3 l 0,-0.25 c 0.01,0 0.5,0.03 0.78,0.03 0.24,0 0.49,-0.01 0.74,-0.03 l 0,0.25 c -0.41,0 -0.48,0 -0.48,0.29 l 0,2.54 z"
         inkscape:connector-curvature="0"
         style="fill:#000000;stroke-width:0" /></g>    <g
       id="g24361"
       transform="matrix(1,0,0,-1,-19.389285,581.0172)"
       xml:space="preserve"
       stroke-miterlimit="10.433"
       font-style="normal"
       font-variant="normal"
       font-weight="normal"
       font-stretch="normal"
       font-size-adjust="none"
       letter-spacing="normal"
       word-spacing="normal"
       ns0:text="$V_{\\rm e}$"
       ns0:preamble="/home/jonas/Dropbox/csr/equation/preamble.tex"
       style="font-style:normal;font-variant:normal;font-weight:normal;font-stretch:normal;letter-spacing:normal;word-spacing:normal;text-anchor:start;fill:none;fill-opacity:1;fill-rule:evenodd;stroke:#000000;stroke-linecap:butt;stroke-linejoin:miter;stroke-miterlimit:10.43299961;stroke-dasharray:none;stroke-dashoffset:0;stroke-opacity:1"><path
         style="fill:#000000;stroke-width:0"
         inkscape:connector-curvature="0"
         d="m 229.69,482.9 0.04,0.07 0.05,0.07 0.04,0.06 0.05,0.06 0.04,0.05 0.05,0.05 0.04,0.05 0.04,0.05 0.04,0.04 0.05,0.03 0.04,0.04 0.04,0.03 0.04,0.03 0.04,0.02 0.04,0.03 0.04,0.02 0.04,0.02 0.04,0.01 0.04,0.02 0.04,0.01 0.04,0.01 0.03,0.01 0.04,0.01 0.04,0.01 0.03,0.01 0.04,0 0.07,0.01 0.07,0 0.07,0.01 c 0.12,0.01 0.13,0.18 0.13,0.19 0,0.08 -0.05,0.12 -0.13,0.12 -0.25,0 -0.54,-0.03 -0.81,-0.03 -0.33,0 -0.67,0.03 -0.99,0.03 -0.06,0 -0.19,0 -0.19,-0.19 0,-0.11 0.09,-0.12 0.16,-0.12 0.27,-0.02 0.46,-0.12 0.46,-0.33 0,-0.15 -0.15,-0.37 -0.15,-0.38 l -3.06,-4.86 -0.68,5.27 c 0,0.17 0.23,0.3 0.69,0.3 0.14,0 0.25,0 0.25,0.2 0,0.09 -0.08,0.11 -0.14,0.11 -0.4,0 -0.83,-0.03 -1.23,-0.03 -0.18,0 -0.37,0.01 -0.55,0.01 -0.18,0 -0.37,0.02 -0.54,0.02 -0.07,0 -0.19,0 -0.19,-0.19 0,-0.12 0.09,-0.12 0.25,-0.12 0.56,0 0.57,-0.09 0.6,-0.34 l 0.78,-6.15 c 0.03,-0.2 0.07,-0.23 0.2,-0.23 0.16,0 0.2,0.05 0.28,0.18 z"
         id="path24363" /><path
         style="fill:#000000;stroke-width:0"
         inkscape:connector-curvature="0"
         d="m 232.31,477.33 0.02,0 0.01,0 0.01,0 0.01,0 0.01,0 0.02,0 0.01,0 0.01,0 0,0 0.01,0 0.01,0.01 0.01,0 0.01,0 0,0 0.01,0.01 0.01,0 0,0 0.01,0.01 0,0 0.01,0.01 0,0 0,0.01 0.01,0.01 0,0 0,0 0,0.01 0,0 0,0.01 0,0 0,0.01 0.01,0 0,0.01 0,0 0,0.01 0,0 0,0.01 0,0.01 0,0 0,0.01 0,0.01 0,0 c 0,0.62 -0.34,1.37 -1.38,1.37 -0.92,0 -1.61,-0.73 -1.61,-1.58 0,-0.89 0.77,-1.6 1.7,-1.6 0.94,0 1.29,0.75 1.29,0.91 0,0.03 -0.02,0.09 -0.12,0.09 -0.09,0 -0.1,-0.04 -0.13,-0.11 -0.21,-0.56 -0.74,-0.67 -0.99,-0.67 -0.33,0 -0.64,0.15 -0.85,0.41 -0.26,0.33 -0.27,0.76 -0.27,1.03 l 0.01,0.18 c 0.08,0.98 0.7,1.14 0.97,1.14 0.86,0 0.88,-0.96 0.89,-1.14 l -1.86,0 -0.01,-0.18 z"
         id="path24365" /></g>    <g
       style="font-style:normal;font-variant:normal;font-weight:normal;font-stretch:normal;letter-spacing:normal;word-spacing:normal;text-anchor:start;fill:none;fill-opacity:1;fill-rule:evenodd;stroke:#000000;stroke-linecap:butt;stroke-linejoin:miter;stroke-miterlimit:10.43299961;stroke-dasharray:none;stroke-dashoffset:0;stroke-opacity:1"
       ns0:preamble="/home/jonas/Dropbox/csr/equation/preamble.tex"
       ns0:text="$V_{\\rm i}$"
       word-spacing="normal"
       letter-spacing="normal"
       font-size-adjust="none"
       font-stretch="normal"
       font-weight="normal"
       font-variant="normal"
       font-style="normal"
       stroke-miterlimit="10.433"
       xml:space="preserve"
       transform="matrix(1,0,0,-1,-149.49999,600.25292)"
       id="g24430"><path
         id="path24432"
         d="m 229.69,482.9 0.04,0.07 0.05,0.07 0.04,0.06 0.05,0.06 0.04,0.05 0.05,0.05 0.04,0.05 0.04,0.05 0.04,0.04 0.05,0.03 0.04,0.04 0.04,0.03 0.04,0.03 0.04,0.02 0.04,0.03 0.04,0.02 0.04,0.02 0.04,0.01 0.04,0.02 0.04,0.01 0.04,0.01 0.03,0.01 0.04,0.01 0.04,0.01 0.03,0.01 0.04,0 0.07,0.01 0.07,0 0.07,0.01 c 0.12,0.01 0.13,0.18 0.13,0.19 0,0.08 -0.05,0.12 -0.13,0.12 -0.25,0 -0.54,-0.03 -0.81,-0.03 -0.33,0 -0.67,0.03 -0.99,0.03 -0.06,0 -0.19,0 -0.19,-0.19 0,-0.11 0.09,-0.12 0.16,-0.12 0.27,-0.02 0.46,-0.12 0.46,-0.33 0,-0.15 -0.15,-0.37 -0.15,-0.38 l -3.06,-4.86 -0.68,5.27 c 0,0.17 0.23,0.3 0.69,0.3 0.14,0 0.25,0 0.25,0.2 0,0.09 -0.08,0.11 -0.14,0.11 -0.4,0 -0.83,-0.03 -1.23,-0.03 -0.18,0 -0.37,0.01 -0.55,0.01 -0.18,0 -0.37,0.02 -0.54,0.02 -0.07,0 -0.19,0 -0.19,-0.19 0,-0.12 0.09,-0.12 0.25,-0.12 0.56,0 0.57,-0.09 0.6,-0.34 l 0.78,-6.15 c 0.03,-0.2 0.07,-0.23 0.2,-0.23 0.16,0 0.2,0.05 0.28,0.18 z"
         inkscape:connector-curvature="0"
         style="fill:#000000;stroke-width:0" /><path
         id="path24434"
         d="m 230.72,480.04 0,0.02 -0.01,0.02 0,0.02 0,0.02 -0.01,0.02 0,0.01 -0.01,0.02 0,0.02 -0.01,0.02 -0.01,0.01 -0.01,0.02 -0.01,0.02 -0.01,0.01 -0.01,0.02 -0.01,0.01 -0.02,0.02 -0.01,0.01 -0.02,0.01 -0.01,0.02 -0.02,0.01 -0.01,0.01 -0.02,0.01 -0.02,0.01 -0.01,0.01 -0.02,0 -0.02,0.01 -0.02,0.01 -0.02,0 -0.02,0.01 -0.02,0 -0.03,0 -0.02,0 c -0.21,0 -0.4,-0.17 -0.4,-0.4 0,-0.25 0.21,-0.4 0.4,-0.4 0.23,0 0.41,0.17 0.41,0.4 z"
         inkscape:connector-curvature="0"
         style="fill:#000000;stroke-width:0" /><path
         id="path24436"
         d="m 229.66,478.74 0,-0.25 c 0.44,0 0.5,-0.04 0.5,-0.39 l 0,-1.81 c 0,-0.3 -0.07,-0.3 -0.52,-0.3 l 0,-0.25 c 0.01,0 0.5,0.03 0.78,0.03 0.24,0 0.49,-0.01 0.74,-0.03 l 0,0.25 c -0.41,0 -0.48,0 -0.48,0.29 l 0,2.54 z"
         inkscape:connector-curvature="0"
         style="fill:#000000;stroke-width:0" /></g>    <rect
       style="color:#000000;clip-rule:nonzero;display:inline;overflow:visible;visibility:visible;opacity:1;isolation:auto;mix-blend-mode:normal;color-interpolation:sRGB;color-interpolation-filters:linearRGB;solid-color:#000000;solid-opacity:1;fill:#b3b3b3;fill-opacity:1;fill-rule:nonzero;stroke:none;stroke-width:1;stroke-linecap:round;stroke-linejoin:miter;stroke-miterlimit:4;stroke-dasharray:none;stroke-dashoffset:0;stroke-opacity:1;marker:none;color-rendering:auto;image-rendering:auto;shape-rendering:auto;text-rendering:auto;enable-background:accumulate"
       id="rect24174"
       width="28.928572"
       height="105.35715"
       x="128.75348"
       y="29.505056" />
    <path
       style="color:#000000;clip-rule:nonzero;display:inline;overflow:visible;visibility:visible;opacity:1;isolation:auto;mix-blend-mode:normal;color-interpolation:sRGB;color-interpolation-filters:linearRGB;solid-color:#000000;solid-opacity:1;fill:none;fill-opacity:1;fill-rule:evenodd;stroke:#000000;stroke-width:1px;stroke-linecap:butt;stroke-linejoin:miter;stroke-miterlimit:4;stroke-dasharray:none;stroke-dashoffset:0;stroke-opacity:1;marker-end:url(#marker24617);color-rendering:auto;image-rendering:auto;shape-rendering:auto;text-rendering:auto;enable-background:accumulate"
       d="m 214.82998,87.246724 -57.05654,0"
       id="path24198"
       inkscape:connector-curvature="0"
       sodipodi:nodetypes="cc" />
    <path
       style="color:#000000;clip-rule:nonzero;display:inline;overflow:visible;visibility:visible;opacity:1;isolation:auto;mix-blend-mode:normal;color-interpolation:sRGB;color-interpolation-filters:linearRGB;solid-color:#000000;solid-opacity:1;fill:none;fill-opacity:1;fill-rule:evenodd;stroke:#000000;stroke-width:1px;stroke-linecap:butt;stroke-linejoin:miter;stroke-miterlimit:4;stroke-dasharray:none;stroke-dashoffset:0;stroke-opacity:1;marker-end:url(#marker24686);color-rendering:auto;image-rendering:auto;shape-rendering:auto;text-rendering:auto;enable-background:accumulate"
       d="m 214.65141,93.519963 -56.92786,0"
       id="path24198-6-0"
       inkscape:connector-curvature="0"
       sodipodi:nodetypes="cc" />
    <path
       style="fill:none;fill-rule:evenodd;stroke:#000000;stroke-width:1px;stroke-linecap:butt;stroke-linejoin:miter;stroke-opacity:1;color:#000000;clip-rule:nonzero;display:inline;overflow:visible;visibility:visible;opacity:1;isolation:auto;mix-blend-mode:normal;color-interpolation:sRGB;color-interpolation-filters:linearRGB;solid-color:#000000;solid-opacity:1;fill-opacity:1;stroke-miterlimit:4;stroke-dasharray:none;stroke-dashoffset:0;marker-end:url(#marker24584);filter-blend-mode:normal;filter-gaussianBlur-deviation:0;color-rendering:auto;image-rendering:auto;shape-rendering:auto;text-rendering:auto;enable-background:accumulate"
       d="m 75.182662,126.855 54.262938,0"
       id="path24198-6"
       inkscape:connector-curvature="0"
       sodipodi:nodetypes="cc" />
    <path
       style="fill:none;fill-rule:evenodd;stroke:#000000;stroke-width:1px;stroke-linecap:butt;stroke-linejoin:miter;stroke-opacity:1;marker-end:url(#DotM)"
       d="m 75.561742,68.128077 53.504778,0"
       id="path24198-3"
       inkscape:connector-curvature="0"
       sodipodi:nodetypes="cc" />
    <path
       style="fill:none;fill-rule:evenodd;stroke:#000000;stroke-width:1;stroke-linecap:round;stroke-linejoin:miter;stroke-opacity:1;stroke-miterlimit:4;stroke-dasharray:4, 4;stroke-dashoffset:0"
       d="M 129.63011,126.58675 157.66583,93.551038"
       id="path24810"
       inkscape:connector-curvature="0"
       sodipodi:nodetypes="cc" />
    <path
       style="fill:none;fill-rule:evenodd;stroke:#000000;stroke-width:1;stroke-linecap:round;stroke-linejoin:miter;stroke-miterlimit:4;stroke-dasharray:4, 4;stroke-dashoffset:0;stroke-opacity:1"
       d="m 128.4694,67.926037 28.75001,18.839288"
       id="path24810-7"
       inkscape:connector-curvature="0"
       sodipodi:nodetypes="cc" />
  </g>
</svg>
