<?xml version="1.0" encoding="utf-8"?>
<!-- Generator: Adobe Illustrator 15.0.0, SVG Export Plug-In . SVG Version: 6.00 Build 0)  -->
<!DOCTYPE svg PUBLIC "-//W3C//DTD SVG 1.1//EN" "http://www.w3.org/Graphics/SVG/1.1/DTD/svg11.dtd">
<svg version="1.1" id="Layer_1" xmlns="http://www.w3.org/2000/svg" xmlns:xlink="http://www.w3.org/1999/xlink" x="0px" y="0px"
	 width="283.46px" height="85.04px" viewBox="0 0 283.46 85.04" enable-background="new 0 0 283.46 85.04" xml:space="preserve">
<rect x="27.642" y="31.862" fill="none" width="20.723" height="16.776"/>
<text transform="matrix(1 0 0 1 27.6411 44.6406)" font-family="'MyriadPro-Regular'" font-size="18">C1</text>
<rect x="71.419" y="31.862" fill="none" width="20.723" height="16.776"/>
<text transform="matrix(1 0 0 1 71.418 44.6406)" font-family="'MyriadPro-Regular'" font-size="18">C2</text>
<rect x="115.194" y="31.862" fill="none" width="20.724" height="16.776"/>
<text transform="matrix(1 0 0 1 115.1938 44.6406)" font-family="'MyriadPro-Regular'" font-size="18">C3</text>
<rect x="158.972" y="31.863" fill="none" width="20.722" height="16.775"/>
<text transform="matrix(1 0 0 1 158.9707 44.6426)" font-family="'MyriadPro-Regular'" font-size="18">C4</text>
<rect x="202.747" y="31.863" fill="none" width="20.723" height="16.775"/>
<text transform="matrix(1 0 0 1 202.7461 44.6426)" font-family="'MyriadPro-Regular'" font-size="18">O</text>
<g>
	<g>
		<line fill="none" stroke="#000000" stroke-miterlimit="10" x1="48.693" y1="35.679" x2="65.936" y2="35.679"/>
		<g>
			<polygon points="68.76,35.679 64.78,37.305 65.725,35.679 64.78,34.053 			"/>
		</g>
	</g>
</g>
<g>
	<g>
		<line fill="none" stroke="#000000" stroke-miterlimit="10" x1="92.68" y1="35.679" x2="109.922" y2="35.679"/>
		<g>
			<polygon points="112.746,35.679 108.767,37.305 109.711,35.679 108.767,34.053 			"/>
		</g>
	</g>
</g>
<g>
	<g>
		<line fill="none" stroke="#000000" stroke-miterlimit="10" x1="137.286" y1="35.679" x2="154.528" y2="35.679"/>
		<g>
			<polygon points="157.353,35.679 153.373,37.305 154.317,35.679 153.373,34.053 			"/>
		</g>
	</g>
</g>
<g>
	<g>
		<line fill="none" stroke="#000000" stroke-miterlimit="10" x1="181.272" y1="35.679" x2="198.515" y2="35.679"/>
		<g>
			<polygon points="201.339,35.679 197.359,37.305 198.304,35.679 197.359,34.053 			"/>
		</g>
	</g>
</g>
<g>
	<g>
		<line fill="none" stroke="#000000" stroke-miterlimit="10" x1="201.691" y1="41.691" x2="184.45" y2="41.691"/>
		<g>
			<polygon points="181.626,41.691 185.605,40.065 184.661,41.691 185.605,43.317 			"/>
		</g>
	</g>
</g>
<g>
	<g>
		<line fill="none" stroke="#000000" stroke-miterlimit="10" x1="157.705" y1="41.691" x2="140.464" y2="41.691"/>
		<g>
			<polygon points="137.64,41.691 141.619,40.065 140.675,41.691 141.619,43.317 			"/>
		</g>
	</g>
</g>
<g>
	<g>
		<line fill="none" stroke="#000000" stroke-miterlimit="10" x1="113.101" y1="41.691" x2="95.858" y2="41.691"/>
		<g>
			<polygon points="93.034,41.691 97.014,40.065 96.069,41.691 97.014,43.317 			"/>
		</g>
	</g>
</g>
<g>
	<g>
		<line fill="none" stroke="#000000" stroke-miterlimit="10" x1="69.112" y1="41.691" x2="51.872" y2="41.691"/>
		<g>
			<polygon points="49.048,41.691 53.027,40.065 52.083,41.691 53.027,43.317 			"/>
		</g>
	</g>
</g>
<rect x="239.648" y="31.863" fill="none" width="20.722" height="16.775"/>
<text transform="matrix(1 0 0 1 239.6465 44.6426)" font-family="'MyriadPro-Regular'" font-size="18">I</text>
<g>
	<g>
		<line fill="none" stroke="#000000" stroke-miterlimit="10" x1="217.272" y1="35.679" x2="234.515" y2="35.679"/>
		<g>
			<polygon points="237.339,35.679 233.359,37.305 234.304,35.679 233.359,34.053 			"/>
		</g>
	</g>
</g>
<g>
	<g>
		<line fill="none" stroke="#000000" stroke-miterlimit="10" x1="237.691" y1="41.691" x2="220.45" y2="41.691"/>
		<g>
			<polygon points="217.626,41.691 221.605,40.065 220.661,41.691 221.605,43.317 			"/>
		</g>
	</g>
</g>
<rect x="55.506" y="45.28" fill="none" width="20.723" height="16.776"/>
<text transform="matrix(1 0 0 1 55.5054 53.7988)" font-family="'MyriadPro-Regular'" font-size="12">β</text>
<rect x="139.91" y="22.974" fill="none" width="20.723" height="16.776"/>
<text transform="matrix(1 0 0 1 139.9092 31.4927)" font-family="'MyriadPro-Regular'" font-size="12">2α</text>
<rect x="99.164" y="46.131" fill="none" width="20.722" height="16.777"/>
<text transform="matrix(1 0 0 1 99.1631 54.6504)" font-family="'MyriadPro-Regular'" font-size="12">2β</text>
<rect x="186.585" y="22.298" fill="none" width="20.723" height="16.776"/>
<text transform="matrix(1 0 0 1 186.584 30.8169)" font-family="'MyriadPro-Regular'" font-size="12">α</text>
<rect x="95.024" y="22.93" fill="none" width="20.723" height="16.776"/>
<text transform="matrix(1 0 0 1 95.0229 31.4492)" font-family="'MyriadPro-Regular'" font-size="12">3α</text>
<rect x="51.251" y="23.106" fill="none" width="20.723" height="16.776"/>
<text transform="matrix(1 0 0 1 51.251 31.625)" font-family="'MyriadPro-Regular'" font-size="12">4α</text>
<rect x="142.313" y="47.474" fill="none" width="20.723" height="16.776"/>
<text transform="matrix(1 0 0 1 142.3125 55.9922)" font-family="'MyriadPro-Regular'" font-size="12">3β</text>
<rect x="185.98" y="47.158" fill="none" width="20.723" height="16.775"/>
<text transform="matrix(1 0 0 1 185.9795 55.6768)" font-family="'MyriadPro-Regular'" font-size="12">4β</text>
<rect x="222.699" y="20" fill="none" width="20.723" height="16.775"/>
<text transform="matrix(1 0 0 1 222.6982 28.5181)" font-family="'MyriadPro-Regular'" font-size="12">k</text>
<text transform="matrix(0.583 0 0 0.583 228.3262 32.5142)" font-family="'MyriadPro-Regular'" font-size="12">1</text>
<rect x="226.007" y="43.5" fill="none" width="20.723" height="16.776"/>
<text transform="matrix(1 0 0 1 226.0059 52.0176)" font-family="'MyriadPro-Regular'" font-size="12">k</text>
<text transform="matrix(0.583 0 0 0.583 231.6338 56.0137)" font-family="'MyriadPro-Regular'" font-size="12">2</text>
</svg>
