<?xml version="1.0" encoding="UTF-8" standalone="no"?>
<!-- Created with Inkscape (http://www.inkscape.org/) -->

<svg
	xmlns:dc="http://purl.org/dc/elements/1.1/"
	xmlns:cc="http://creativecommons.org/ns#"
	xmlns:rdf="http://www.w3.org/1999/02/22-rdf-syntax-ns#"
	xmlns:svg="http://www.w3.org/2000/svg"
	xmlns="http://www.w3.org/2000/svg"
	version="1.1"
	width="1098.4271"
	height="840.81598"
	viewBox="0 0 1098.4271 840.81596"
	id="svg2"
	xml:space="preserve">
	
	<metadata id="metadata227">
		<rdf:RDF>
			<cc:Work rdf:about="">
			<dc:format>image/svg+xml</dc:format>
			<dc:type rdf:resource="http://purl.org/dc/dcmitype/StillImage" />
			<dc:title>
			</dc:title>
			</cc:Work>
		</rdf:RDF>
	</metadata>
	<defs id="defs225"></defs>

	<rect width="1098.4271" height="840.81598" x="-1.2217073e-05" y="0" id="rect17" 	style="fill:#ffffff;stroke:none" />

	<line style="fill:none;stroke:#000000;stroke-width:1;stroke-miterlimit:10" id="line19" y2="821.37805" x2="257.46198" y1="210.62201" x1="257.46198" stroke-miterlimit="10" />
	<line style="fill:none;stroke:#000000;stroke-width:1;stroke-miterlimit:10;stroke-dasharray:6.0018, 6.0018" id="line29" y2="747.78998" x2="276.05997" y1="210.62201" x1="276.05997" stroke-miterlimit="10" />
	<line style="fill:none;stroke:#000000;stroke-width:1;stroke-miterlimit:10" id="line21" y2="821.37805" x2="391.37198" y1="210.62201" x1="391.37198" stroke-miterlimit="10" />
	<line style="fill:none;stroke:#000000;stroke-width:1;stroke-miterlimit:10;stroke-dasharray:6.0018, 6.0018" id="line39" y2="747.78998" x2="409.96997" y1="210.62201" x1="409.96997" stroke-miterlimit="10" />
	<line style="fill:none;stroke:#000000;stroke-width:1;stroke-miterlimit:10;stroke-dasharray:6.0018, 6.0018" id="line49" y2="747.78998" x2="484.36395" y1="210.62201" x1="484.36395" stroke-miterlimit="10" />
	<line style="fill:none;stroke:#000000;stroke-width:1;stroke-miterlimit:10;stroke-dasharray:6.0018, 6.0018" id="line59" y2="747.78998" x2="560.61798" y1="210.62201" x1="560.61798" stroke-miterlimit="10" />
	<line style="fill:none;stroke:#000000;stroke-width:1;stroke-miterlimit:10" id="line63" y2="821.37805" x2="634.74799" y1="210.62201" x1="634.74799" stroke-miterlimit="10" />
	<line style="fill:none;stroke:#000000;stroke-width:1;stroke-miterlimit:10;stroke-dasharray:6.0018, 6.0018" id="line73" y2="747.78998" x2="653.34796" y1="210.62201" x1="653.34796" stroke-miterlimit="10" />
	<line style="fill:none;stroke:#000000;stroke-width:1;stroke-miterlimit:10" id="line65" y2="821.37805" x2="768.65796" y1="210.62201" x1="768.65796" stroke-miterlimit="10" />
	<line style="fill:none;stroke:#000000;stroke-width:1;stroke-miterlimit:10;stroke-dasharray:6.0018, 6.0018" id="line83" y2="747.78998" x2="787.25598" y1="210.62201" x1="787.25598" stroke-miterlimit="10" />

	<path d="m 842.33797,262.864 c -26.616,-6.758 -47.618,-13.22 -54.48,-17.098 -11.31,-6.394 -11.124,12.36 -19.776,11.742 -8.652,-0.618 -32.906,-39.732 -56.238,-37.08 -27.194,3.09 -44.498,66.126 -56.858,70.454 -9.95,3.482 -58.39,-1.65 -96.092,-8.284 -37.702,-6.634 -134.11,-28.798 -148.324,-36.832 -11.312,-6.394 -11.124,12.36 -19.776,11.742 -8.652,-0.618 -32.904,-39.732 -56.238,-37.08 -27.192,3.09 -44.498,66.126 -56.856,70.454 -12.358,4.328 -84.826,-3.772 -120.67,-14.278" id="path89" style="fill:none;stroke:#808080;stroke-width:3;stroke-miterlimit:10" />
	<path d="m 842.33797,419.006 c -8.766,-0.108 -16.498,-0.198 -22.344,-0.198 -24.104,0 -31.518,-9.888 -35.226,-9.888 -5.56,0 -66.744,15.452 -90.228,15.452 -27.368,0 -32.136,-13.596 -39.552,-13.596 -8.034,0 -12.362,14.028 -20.238,14.028 -10.044,0 -16.224,-20.826 -37.856,-20.826 -15.138,0 -25.122,11.854 -44.152,14.004 -19.03,2.15 -85.606,0.828 -110.034,0.828 -24.102,0 -31.518,-9.888 -35.226,-9.888 -5.562,0 -66.746,15.452 -90.23,15.452 -27.368,0 -32.136,-13.596 -39.552,-13.596 -8.034,0 -12.36,14.028 -20.238,14.028 -10.044,0 -16.224,-20.826 -37.856,-20.826 -18.31,0 -40.946,18.362 -62.576,12.798" id="path91" style="fill:none;stroke:#808080;stroke-width:3;stroke-miterlimit:10" />
	<path d="m 842.33797,432.988 c -32.566,-0.228 -48.238,-4.746 -52.626,-12.326 -13.488,-23.3 -7.064,-117.176 -15.472,-149.298 -4.922,-18.8 -34.346,-66.154 -70.43,-55.88 -64.85,18.462 -62.418,207.032 -69.06,209.32 -8.884,3.06 -14.372,-13.95 -28.584,-13.95 -25.34,0 -38.86,15.898 -71.528,16.738 -32.668,0.84 -115.414,4.812 -122.212,-6.93 -13.49,-23.3 -7.066,-117.176 -15.474,-149.298 -4.92,-18.8 -34.346,-66.154 -70.43,-55.88 -64.85,18.462 -62.418,207.032 -69.06,209.32 -8.886,3.06 -14.372,-13.95 -28.584,-13.95 -25.338,0 -40.17,16.738 -71.846,16.738" id="path93" style="fill:none;stroke:#0000ff;stroke-width:3;stroke-miterlimit:10" />
	<path d="m 842.33797,532.486 c -8.206,2.704 -16.012,6.172 -22.958,10.682 -16.922,10.988 -24.106,54.192 -35.23,54.192 -54.036,0 -67.708,-9.688 -94.554,-45.116 -18.356,-24.22 -31.658,-52.266 -37.7,-55.622 -5.56,-3.09 -12.36,0.62 -23.484,0 -11.124,-0.62 -19.776,-4.326 -32.134,-1.854 -12.358,2.472 -30.618,21.738 -38.62,24.72 -12.914,4.812 -77.296,-1.168 -115.564,23.678 -16.924,10.988 -24.106,54.192 -35.23,54.192 -54.038,0 -67.708,-9.688 -94.554,-45.116 -18.356,-24.22 -31.66,-52.266 -37.7,-55.622 -5.562,-3.09 -12.36,0.62 -23.484,0 -11.124,-0.62 -19.776,-4.326 -32.136,-1.854 -12.36,2.472 -29.198,21.724 -37.082,24.72 -7.884,2.996 -19.204,3.622 -24.878,3.668" id="path97" style="fill:none;stroke:#ff0000;stroke-width:3;stroke-miterlimit:10" />
	<path d="m 842.33797,633.82 c -27.382,0 -53.19,0 -56.334,0 -6.796,0 -31.148,-18.54 -45.116,-18.54 -15.118,0 -40.788,18.54 -47.586,18.54 -4.326,0 -35.226,0 -38.316,0 -4.22,0 -6.81,38.936 -9.99,38.936 -4.326,0 -2.238,-75.396 -9.066,-75.396 -4.358,0 -10.244,50.058 -12.6,50.058 -2.236,0 -5.298,-13.598 -9.132,-13.598 -2.47,0 -25.956,0 -32.756,0 -6.796,0 -13.542,-12.976 -22.708,-12.976 -9.166,0 -18.12,12.976 -24.918,12.976 -5.562,0 -118.302,0 -125.1,0 -6.798,0 -31.15,-18.54 -45.116,-18.54 -15.118,0 -40.788,18.54 -47.586,18.54 -4.326,0 -35.226,0 -38.316,0 -4.22,0 -6.812,38.936 -9.99,38.936 -4.326,0 -2.238,-75.396 -9.066,-75.396 -4.358,0 -10.244,50.058 -12.6,50.058 -2.238,0 -5.298,-13.598 -9.132,-13.598 -2.472,0 -25.956,0 -32.754,0 -6.798,0 -12.146,-12.976 -22.776,-12.976 -10.63,0 -16.668,12.976 -23.466,12.976 -0.242,0 -0.368,0 -0.456,0 -0.102,0 -0.144,0 -0.128,0 -0.068,0 -0.16,0 -0.298,0" id="path95" style="fill:none;stroke:#000080;stroke-width:3;stroke-miterlimit:10" />
	<path d="m 842.33797,711.682 h -4.018 c 0,0 -29.188,0 -32.738,0 -2.39,0 -3.008,-1.936 -4.602,-1.936 -1.656,0 -2.652,4.244 -4.242,4.244 -1.682,0 -2.3,-6.456 -3.802,-6.456 -1.946,0 -2.366,10.636 -3.868,10.636 -1.49,0 -1.084,-12.936 -3.032,-12.936 -1.68,0 -1.15,15.924 -2.918,15.924 -1.768,0 -1.06,-25.12 -3.272,-25.12 -2.122,0 -1.592,31.282 -3.624,31.282 -1.946,0 -2.124,-39.812 -3.714,-39.812 -1.68,0 -2.21,24.172 -3.89,24.172 -2.372,0 -93.31,0 -96.864,0 -2.388,0 -3.008,-1.936 -4.6,-1.936 -1.658,0 -2.654,4.244 -4.244,4.244 -1.682,0 -2.3,-6.456 -3.802,-6.456 -1.946,0 -2.366,10.636 -3.868,10.636 -1.49,0 -1.084,-12.936 -3.032,-12.936 -1.68,0 -1.15,15.924 -2.918,15.924 -1.768,0 -1.06,-25.12 -3.272,-25.12 -2.122,0 -1.592,31.282 -3.624,31.282 -1.946,0 -2.124,-39.812 -3.714,-39.812 -1.68,0 -2.21,23.902 -3.89,23.902 -2.372,0 -135.666,0 -139.218,0 -3.404,0 -4.334,2.108 -5.926,2.108 -1.68,0 -1.812,-5.892 -3.314,-5.892 -1.946,0 -2.366,9.708 -3.868,9.708 -1.492,0 -1.338,-11.806 -3.284,-11.806 -1.68,0 -1.51,6.152 -3.278,6.152 h -14.612 c 0,0 -29.188,0 -32.74,0 -2.388,0 -3.006,-1.936 -4.6,-1.936 -1.658,0 -2.652,4.244 -4.244,4.244 -1.68,0 -2.298,-6.456 -3.802,-6.456 -1.946,0 -2.364,10.636 -3.868,10.636 -1.49,0 -1.084,-12.936 -3.032,-12.936 -1.68,0 -1.15,15.924 -2.918,15.924 -1.768,0 -1.06,-25.12 -3.272,-25.12 -2.122,0 -1.592,31.282 -3.626,31.282 -1.946,0 -2.122,-39.812 -3.714,-39.812 -1.68,0 -2.21,24.172 -3.892,24.172 -2.37,0 -93.31,0 -96.864,0 -2.388,0 -3.006,-1.936 -4.598,-1.936 -1.658,0 -2.654,4.244 -4.246,4.244 -1.68,0 -2.298,-6.456 -3.802,-6.456 -1.946,0 -2.364,10.636 -3.868,10.636 -1.49,0 -1.084,-12.936 -3.032,-12.936 -1.68,0 -1.15,15.924 -2.918,15.924 -1.768,0 -1.06,-25.12 -3.272,-25.12 -2.122,0 -1.592,31.282 -3.626,31.282 -1.946,0 -2.122,-39.812 -3.714,-39.812 -1.68,0 -2.21,23.902 -3.892,23.902 -2.37,0 -96.828,0 -101.094,0" id="path87" style="fill:none;stroke:#808080;stroke-width:3;stroke-miterlimit:10;stroke-opacity:1" />

	<text x="53.659077" y="322.5506"  transform="matrix(0.70710678,-0.70710678,0.70710678,0.70710678,0,0)" id="text99"  style="font-size:19.99980736px;font-family:Nimbus Sans L">Isovolumic contraction</text>
	<text x="100.55453" y="369.44489" transform="matrix(0.70710678,-0.70710678,0.70710678,0.70710678,0,0)" id="text103" style="font-size:19.99980736px;font-family:Nimbus Sans L">Ejection</text>
	<text x="148.01144" y="416.90179" transform="matrix(0.70710678,-0.70710678,0.70710678,0.70710678,0,0)" id="text101" style="font-size:19.99980736px;font-family:Nimbus Sans L">Isovolumic relaxation</text>
	<text x="185.25137" y="454.14032" transform="matrix(0.70710678,-0.70710678,0.70710678,0.70710678,0,0)" id="text201" style="font-size:19.99980736px;font-family:Nimbus Sans L">Rapid inflow</text>
	<text x="235.84599" y="504.73633" transform="matrix(0.70710678,-0.70710678,0.70710678,0.70710678,0,0)" id="text199" style="font-size:19.99980736px;font-family:Nimbus Sans L">Diastasis</text>
	<text x="288.34244" y="557.2312"  transform="matrix(0.70710678,-0.70710678,0.70710678,0.70710678,0,0)" id="text109" style="font-size:19.99980736px;font-family:Nimbus Sans L">Atrial systole</text>
	<text x="858.67676" y="267.53058" id="text151" style="font-size:20px;font-family:Nimbus Sans L">Aortic pressure</text>
	<text x="858.67676" y="413.54138" id="text177" style="font-size:20px;font-family:Nimbus Sans L">Atrial pressure</text>
	<text x="858.67676" y="449.32739" id="text179" style="font-size:20px;fill:#0000ff;font-family:Nimbus Sans L">Ventricular pressure</text>
	<text x="858.67676" y="540.49341" id="text181" style="font-size:20px;fill:#ff0000;stroke:none;font-family:Nimbus Sans L">Ventricular volume</text>
	<text x="858.67676" y="638.97003" id="text185" style="font-size:20px;fill:#000080;font-family:Nimbus Sans L">Electrocardiogram</text>
	<text x="858.67676" y="717.82941" id="text183" style="font-size:20px;font-family:Nimbus Sans L">Phonocardiogram</text>
	<text x="323.47906" y="784.15979" id="text4264" xml:space="preserve" style="font-size:28px;font-style:normal;text-align:start;letter-spacing:0px;word-spacing:0px;writing-mode:lr-tb;text-anchor:start;fill:#000000;stroke:none;font-family:Nimbus Sans L"><tspan x="323.47906" y="784.15979" id="tspan4266" style="font-size:20px;font-style:normal;text-align:center;text-anchor:middle;font-family:Nimbus Sans L">Systole</tspan></text>
	<text x="516.46539" y="783.9198"  id="text4272" xml:space="preserve" style="font-size:28px;font-style:normal;text-align:start;letter-spacing:0px;word-spacing:0px;writing-mode:lr-tb;text-anchor:start;fill:#000000;stroke:none;font-family:Nimbus Sans L"><tspan x="516.46539" y="783.9198"  id="tspan4274" style="font-size:20px;font-style:normal;text-align:center;text-anchor:middle;font-family:Nimbus Sans L">Diastole</tspan></text>
	<text x="704.58289" y="784.15979" id="text4268" xml:space="preserve" style="font-size:28px;font-style:normal;text-align:start;letter-spacing:0px;word-spacing:0px;writing-mode:lr-tb;text-anchor:start;fill:#000000;stroke:none;font-family:Nimbus Sans L"><tspan x="704.58289" y="784.15979" id="tspan4270" style="font-size:20px;font-style:normal;text-align:center;text-anchor:middle;font-family:Nimbus Sans L">Systole</tspan></text>
	<text x="285.15237" y="695.12042" id="text115" style="font-size:20px;font-family:Nimbus Sans L">1st</text>
	<text x="416.71478" y="695.12042" id="text117" style="font-size:20px;font-family:Nimbus Sans L">2nd</text>
	<text x="490.0752"  y="695.12042" id="text119" style="font-size:20px;font-family:Nimbus Sans L">3rd</text>
	<text x="537.97156" y="615.09296" id="text113" style="font-size:20px;font-family:Nimbus Sans L">P</text>
	<text x="613.20801" y="591.44861" id="text121" style="font-size:20px;font-family:Nimbus Sans L">R</text>
	<text x="735.5752"  y="641.16339" id="text123" style="font-size:20px;font-family:Nimbus Sans L">T</text>
	<text x="606.58301" y="669.65936" id="text127" style="font-size:20px;font-family:Nimbus Sans L">Q</text>
	<text x="655.59076" y="680.57355" id="text125" style="font-size:20px;font-family:Nimbus Sans L">S</text>
	<text x="592.43457" y="398.24341" id="text111" style="font-size:20px;font-family:Nimbus Sans L">a</text>
	<text x="661.50476" y="398.24341" id="text129" style="font-size:20px;font-family:Nimbus Sans L">c</text>
	<text x="752.44818" y="398.24341" id="text131" style="font-size:20px;font-family:Nimbus Sans L">v</text>
	<text x="-326.94342" y="47.61171" transform="matrix(0,-1,1,0,0,0)" id="text4318" xml:space="preserve" style="font-size:28px;font-style:normal;text-align:start;letter-spacing:0px;word-spacing:0px;writing-mode:lr-tb;text-anchor:start;fill:#000000;stroke:none;font-family:Nimbus Sans L"><tspan x="-326.94342" y="47.61171" id="tspan4320" style="font-size:20px;font-style:normal;text-align:center;text-anchor:middle;font-family:Nimbus Sans L">Pressure (mmHg)</tspan></text>
	<text x="104.92378"  y="232.9856" id="text155" style="font-size:20px;font-style:normal;text-align:end;writing-mode:lr-tb;text-anchor:end;fill:#000000;font-family:Nimbus Sans L"><tspan id="tspan4195" style="text-align:end;writing-mode:lr-tb;text-anchor:end">120</tspan></text>
	<text x="104.92378" y="266.00421" id="text157" style="font-size:20px;font-style:normal;text-align:end;writing-mode:lr-tb;text-anchor:end;fill:#000000;font-family:Nimbus Sans L"><tspan id="tspan3094" style="text-align:end;writing-mode:lr-tb;text-anchor:end">100</tspan></text>
	<text x="104.92378" y="299.02277" id="text159" style="font-size:20px;font-style:normal;text-align:end;writing-mode:lr-tb;text-anchor:end;fill:#000000;font-family:Nimbus Sans L"><tspan id="tspan3096" style="text-align:end;writing-mode:lr-tb;text-anchor:end">80</tspan></text>
	<text x="104.92378" y="332.04138" id="text161" style="font-size:20px;font-style:normal;text-align:end;writing-mode:lr-tb;text-anchor:end;fill:#000000;font-family:Nimbus Sans L"><tspan id="tspan3098" style="text-align:end;writing-mode:lr-tb;text-anchor:end">60</tspan></text>
	<text x="104.92378" y="365.05981" id="text163" style="font-size:20px;font-style:normal;text-align:end;writing-mode:lr-tb;text-anchor:end;fill:#000000;font-family:Nimbus Sans L"><tspan id="tspan3100" style="text-align:end;writing-mode:lr-tb;text-anchor:end">40</tspan></text>
	<text x="104.92378" y="398.08038" id="text165" style="font-size:20px;font-style:normal;text-align:end;writing-mode:lr-tb;text-anchor:end;fill:#000000;font-family:Nimbus Sans L"><tspan id="tspan3102" style="text-align:end;writing-mode:lr-tb;text-anchor:end">20</tspan></text>
	<text x="104.92378" y="431.099"   id="text167" style="font-size:20px;font-style:normal;text-align:end;writing-mode:lr-tb;text-anchor:end;fill:#000000;font-family:Nimbus Sans L"><tspan id="tspan3104" style="text-align:end;writing-mode:lr-tb;text-anchor:end">0</tspan></text>
	<text x="-545.11066" y="47.731705" transform="matrix(0,-1,1,0,0,0)" id="text4314" xml:space="preserve" style="font-size:28px;font-style:normal;text-align:start;letter-spacing:0px;word-spacing:0px;writing-mode:lr-tb;text-anchor:start;fill:#000000;stroke:none;font-family:Nimbus Sans L"><tspan x="-545.11066" y="47.731705" id="tspan4316" style="font-size:20px;font-style:normal;text-align:center;text-anchor:middle;font-family:Nimbus Sans L">Volume (mL)</tspan></text>
	<text x="104.92378" y="504.22577" id="text171" style="font-size:20px;font-style:normal;text-align:end;writing-mode:lr-tb;text-anchor:end;fill:#000000;font-family:Nimbus Sans L"><tspan id="tspan3106" style="text-align:end;writing-mode:lr-tb;text-anchor:end">130</tspan></text>
	<text x="104.92378" y="554.08521" id="text173" style="font-size:20px;font-style:normal;text-align:end;writing-mode:lr-tb;text-anchor:end;fill:#000000;font-family:Nimbus Sans L"><tspan id="tspan3108" style="text-align:end;writing-mode:lr-tb;text-anchor:end">90</tspan></text>
	<text x="104.92378" y="603.9408"  id="text175" style="font-size:20px;font-style:normal;text-align:end;writing-mode:lr-tb;text-anchor:end;fill:#000000;font-family:Nimbus Sans L"><tspan id="tspan3110" style="text-align:end;writing-mode:lr-tb;text-anchor:end">50</tspan></text>

	<g id="g3467">
		<line style="fill:none;stroke:#000000;stroke-width:1;stroke-miterlimit:10" id="line205" y2="258.90198" x2="117.13397" y1="258.90198" x1="108.05998" stroke-miterlimit="10" />
		<line style="fill:none;stroke:#000000;stroke-width:1;stroke-miterlimit:10" id="line207" y2="291.89801" x2="117.13397" y1="291.89801" x1="108.05998" stroke-miterlimit="10" />
		<line style="fill:none;stroke:#000000;stroke-width:1;stroke-miterlimit:10" id="line209" y2="324.89197" x2="117.13397" y1="324.89197" x1="108.05998" stroke-miterlimit="10" />
		<line style="fill:none;stroke:#000000;stroke-width:1;stroke-miterlimit:10" id="line211" y2="357.888"   x2="117.13397" y1="357.888"   x1="108.05998" stroke-miterlimit="10" />
		<line style="fill:none;stroke:#000000;stroke-width:1;stroke-miterlimit:10" id="line213" y2="390.88397" x2="117.13397" y1="390.88397" x1="108.05998" stroke-miterlimit="10" />
		<polyline transform="matrix(2,0,0,2,-77.710025,-410.07)" style="fill:none;stroke:#000000;stroke-width:0.5;stroke-miterlimit:10" id="polyline215" points="92.885,416.975 97.422,416.975 97.422,317.989 92.885,317.989 " stroke-miterlimit="10" />
	</g>
		
	<g id="g3463">
		<line style="fill:none;stroke:#000000;stroke-width:1;stroke-miterlimit:10" id="line219" y2="546.67999" x2="117.13397" y1="546.67999" x1="108.05998" stroke-miterlimit="10" />
		<polyline transform="matrix(2,0,0,2,-77.710025,-410.07)" style="fill:none;stroke:#000000;stroke-width:0.5;stroke-miterlimit:10" id="polyline221" points="92.885,503.329 97.422,503.329 97.422,453.423 92.885,453.423 " stroke-miterlimit="10" />
	</g>

	<text x="248.0242"  y="224.61147" id="text3118" xml:space="preserve" style="font-size:28px;font-style:normal;text-align:start;letter-spacing:0px;word-spacing:0px;writing-mode:lr-tb;text-anchor:start;fill:#000000;stroke:none;font-family:Nimbus Sans L"><tspan x="248.0242"  y="224.61147" id="tspan3120" style="font-size:16px;font-style:normal;text-align:end;writing-mode:lr-tb;text-anchor:end;fill:#808080;font-family:Nimbus Sans L">Aortic valve</tspan><tspan x="248.0242" y="244.61145" id="tspan3122" style="font-size:16px;font-style:normal;text-align:end;writing-mode:lr-tb;text-anchor:end;fill:#808080;font-family:Nimbus Sans L">opens</tspan></text>
	<text x="430.00705" y="292.93198" id="text3904" xml:space="preserve" style="font-size:28px;font-style:normal;text-align:start;letter-spacing:0px;word-spacing:0px;writing-mode:lr-tb;text-anchor:start;fill:#000000;stroke:none;font-family:Nimbus Sans L"><tspan x="430.00705" y="292.93198" id="tspan3906" style="font-size:16px;font-style:normal;text-align:start;writing-mode:lr-tb;text-anchor:start;fill:#808080;font-family:Nimbus Sans L">Aortic valve</tspan><tspan x="430.00705" y="312.93198" id="tspan3908" style="font-size:16px;font-style:normal;text-align:start;writing-mode:lr-tb;text-anchor:start;fill:#808080;font-family:Nimbus Sans L">closes</tspan></text>
	<text x="248.0242"  y="357.17999" id="text3892" xml:space="preserve" style="font-size:28px;font-style:normal;text-align:start;letter-spacing:0px;word-spacing:0px;writing-mode:lr-tb;text-anchor:start;fill:#000000;stroke:none;font-family:Nimbus Sans L"><tspan x="248.0242"  y="357.17999" id="tspan3894" style="font-size:16px;font-style:normal;text-align:end;writing-mode:lr-tb;text-anchor:end;fill:#808080;font-family:Nimbus Sans L">Mitral valve</tspan><tspan x="248.0242" y="377.17999" id="tspan3896" style="font-size:16px;font-style:normal;text-align:end;writing-mode:lr-tb;text-anchor:end;fill:#808080;font-family:Nimbus Sans L">closes</tspan></text>
	<text x="430.00705" y="353.95438" id="text3898" xml:space="preserve" style="font-size:28px;font-style:normal;text-align:start;letter-spacing:0px;word-spacing:0px;writing-mode:lr-tb;text-anchor:start;fill:#000000;stroke:none;font-family:Nimbus Sans L"><tspan x="430.00705" y="353.95438" id="tspan3900" style="font-size:16px;font-style:normal;text-align:start;writing-mode:lr-tb;text-anchor:start;fill:#808080;font-family:Nimbus Sans L">Mitral valve</tspan><tspan x="430.00705" y="373.95438" id="tspan3902" style="font-size:16px;font-style:normal;text-align:start;writing-mode:lr-tb;text-anchor:start;fill:#808080;font-family:Nimbus Sans L">opens</tspan></text>

	<path d="m 240.93296,251.39821 34.85497,39.00547 0,0" id="path3971-3" style="fill:none;stroke:#000000;stroke-width:1;stroke-linecap:butt;stroke-linejoin:miter;stroke-miterlimit:4;stroke-opacity:1;stroke-dasharray:0.99999998, 0.99999998;stroke-dashoffset:0" />
	<path d="m 391.89755,257.09543 61.8526,21.38527 0,0"  id="path3971-4" style="fill:none;stroke:#000000;stroke-width:1;stroke-linecap:butt;stroke-linejoin:miter;stroke-miterlimit:4;stroke-opacity:1;stroke-dasharray:0.99999998, 0.99999998;stroke-dashoffset:0" />
	<path d="m 240.72084,380.11088 15.56436,43.0614 0,0"  id="path3971"   style="fill:none;stroke:#000000;stroke-width:1;stroke-linecap:butt;stroke-linejoin:miter;stroke-miterlimit:4;stroke-opacity:1;stroke-dasharray:0.99999998, 0.99999998;stroke-dashoffset:0" />
	<path d="m 454.9702,379.35266 -45.41516,27.97586 0,0" id="path3971-0" style="fill:none;stroke:#000000;stroke-width:1;stroke-linecap:butt;stroke-linejoin:miter;stroke-miterlimit:4;stroke-opacity:1;stroke-dasharray:0.99999998, 0.99999998;stroke-dashoffset:0" />

</svg>